<svg width="126" height="21" viewBox="0 0 126 21" fill="none" xmlns="http://www.w3.org/2000/svg">
<rect x="0.96875" y="0.431763" width="20" height="20" rx="5" fill="#0B105C"/>
<path fill-rule="evenodd" clip-rule="evenodd" d="M11.4688 4.08801C11.6096 4.08801 11.7448 4.14398 11.8444 4.24361C11.944 4.34324 12 4.47837 12 4.61926V9.40051H16.7813C16.9221 9.40051 17.0573 9.45648 17.1569 9.55611C17.2565 9.65574 17.3125 9.79087 17.3125 9.93176C17.3125 10.0727 17.2565 10.2078 17.1569 10.3074C17.0573 10.407 16.9221 10.463 16.7813 10.463H12V15.2443C12 15.3852 11.944 15.5203 11.8444 15.6199C11.7448 15.7195 11.6096 15.7755 11.4688 15.7755C11.3279 15.7755 11.1927 15.7195 11.0931 15.6199C10.9935 15.5203 10.9375 15.3852 10.9375 15.2443V10.463H6.15625C6.01535 10.463 5.88023 10.407 5.7806 10.3074C5.68097 10.2078 5.625 10.0727 5.625 9.93176C5.625 9.79087 5.68097 9.65574 5.7806 9.55611C5.88023 9.45648 6.01535 9.40051 6.15625 9.40051H10.9375V4.61926C10.9375 4.47837 10.9935 4.34324 11.0931 4.24361C11.1927 4.14398 11.3279 4.08801 11.4688 4.08801Z" fill="#FCFCFC"/>
<path d="M27.9127 15.4318L31.9448 5.63176H34.2828L38.2728 15.4318H36.0748L35.0808 12.8558H31.0348L30.0267 15.4318H27.9127ZM31.6647 11.2318H34.4648L33.0648 7.61976L31.6647 11.2318ZM41.9425 15.5298C41.2518 15.5298 40.6265 15.3618 40.0665 15.0258C39.5065 14.6898 39.0585 14.2418 38.7225 13.6818C38.3958 13.1124 38.2325 12.4778 38.2325 11.7778C38.2325 11.0778 38.3958 10.4478 38.7225 9.88776C39.0585 9.31843 39.5112 8.87043 40.0805 8.54376C40.6498 8.20776 41.2892 8.03976 41.9985 8.03976C42.3625 8.03976 42.7125 8.0911 43.0485 8.19376C43.3845 8.2871 43.6972 8.4271 43.9865 8.61376V5.63176L45.9045 5.30976V15.4318H44.0145V14.8298C43.4172 15.2964 42.7265 15.5298 41.9425 15.5298ZM42.2505 13.8918C42.6052 13.8918 42.9272 13.8358 43.2165 13.7238C43.5152 13.6024 43.7718 13.4251 43.9865 13.1918V10.3498C43.7718 10.1351 43.5152 9.9671 43.2165 9.84576C42.9178 9.72443 42.5958 9.66376 42.2505 9.66376C41.8492 9.66376 41.4852 9.7571 41.1585 9.94376C40.8412 10.1211 40.5892 10.3731 40.4025 10.6998C40.2158 11.0171 40.1225 11.3764 40.1225 11.7778C40.1225 12.1791 40.2158 12.5384 40.4025 12.8558C40.5892 13.1731 40.8412 13.4251 41.1585 13.6118C41.4852 13.7984 41.8492 13.8918 42.2505 13.8918ZM50.7745 15.5298C50.0839 15.5298 49.4585 15.3618 48.8985 15.0258C48.3385 14.6898 47.8905 14.2418 47.5545 13.6818C47.2279 13.1124 47.0645 12.4778 47.0645 11.7778C47.0645 11.0778 47.2279 10.4478 47.5545 9.88776C47.8905 9.31843 48.3432 8.87043 48.9125 8.54376C49.4819 8.20776 50.1212 8.03976 50.8305 8.03976C51.1945 8.03976 51.5445 8.0911 51.8805 8.19376C52.2165 8.2871 52.5292 8.4271 52.8185 8.61376V5.63176L54.7365 5.30976V15.4318H52.8465V14.8298C52.2492 15.2964 51.5585 15.5298 50.7745 15.5298ZM51.0825 13.8918C51.4372 13.8918 51.7592 13.8358 52.0485 13.7238C52.3472 13.6024 52.6039 13.4251 52.8185 13.1918V10.3498C52.6039 10.1351 52.3472 9.9671 52.0485 9.84576C51.7499 9.72443 51.4279 9.66376 51.0825 9.66376C50.6812 9.66376 50.3172 9.7571 49.9905 9.94376C49.6732 10.1211 49.4212 10.3731 49.2345 10.6998C49.0479 11.0171 48.9545 11.3764 48.9545 11.7778C48.9545 12.1791 49.0479 12.5384 49.2345 12.8558C49.4212 13.1731 49.6732 13.4251 49.9905 13.6118C50.3172 13.7984 50.6812 13.8918 51.0825 13.8918ZM59.049 15.4318V8.13776H60.967V8.69776C61.4896 8.2311 62.1243 7.99776 62.871 7.99776C63.347 7.99776 63.7716 8.09576 64.145 8.29176C64.5183 8.47843 64.8263 8.74443 65.069 9.08976C65.3676 8.7351 65.7176 8.46443 66.119 8.27776C66.5296 8.0911 66.9823 7.99776 67.477 7.99776C68.0276 7.99776 68.5083 8.12376 68.919 8.37576C69.339 8.61843 69.6656 8.9591 69.899 9.39776C70.1416 9.8271 70.263 10.3311 70.263 10.9098V15.4318H68.359V11.1898C68.359 10.7138 68.233 10.3404 67.981 10.0698C67.729 9.78976 67.393 9.64976 66.973 9.64976C66.6836 9.64976 66.4176 9.71043 66.175 9.83176C65.9416 9.9531 65.741 10.1351 65.573 10.3778C65.5823 10.4618 65.5916 10.5458 65.601 10.6298C65.6103 10.7138 65.615 10.8071 65.615 10.9098V15.4318H63.697V11.1898C63.697 10.7138 63.571 10.3404 63.319 10.0698C63.0763 9.78976 62.745 9.64976 62.325 9.64976C62.0356 9.64976 61.7743 9.70576 61.541 9.81776C61.317 9.92976 61.1256 10.0978 60.967 10.3218V15.4318H59.049ZM75.2788 15.5718C74.5508 15.5718 73.8928 15.4038 73.3048 15.0678C72.7168 14.7318 72.2501 14.2791 71.9048 13.7098C71.5595 13.1404 71.3868 12.5011 71.3868 11.7918C71.3868 11.0824 71.5548 10.4431 71.8908 9.87376C72.2361 9.2951 72.7028 8.83776 73.2908 8.50176C73.8881 8.16576 74.5508 7.99776 75.2788 7.99776C76.0068 7.99776 76.6648 8.16576 77.2528 8.50176C77.8501 8.83776 78.3168 9.2951 78.6528 9.87376C78.9981 10.4431 79.1708 11.0824 79.1708 11.7918C79.1708 12.5011 78.9981 13.1404 78.6528 13.7098C78.3168 14.2791 77.8548 14.7318 77.2668 15.0678C76.6788 15.4038 76.0161 15.5718 75.2788 15.5718ZM75.2788 13.9058C75.6615 13.9058 76.0021 13.8124 76.3008 13.6258C76.6088 13.4391 76.8515 13.1871 77.0288 12.8698C77.2155 12.5431 77.3088 12.1838 77.3088 11.7918C77.3088 11.3904 77.2155 11.0311 77.0288 10.7138C76.8515 10.3964 76.6088 10.1444 76.3008 9.95776C76.0021 9.76176 75.6615 9.66376 75.2788 9.66376C74.9055 9.66376 74.5648 9.76176 74.2568 9.95776C73.9488 10.1444 73.7061 10.3964 73.5288 10.7138C73.3515 11.0311 73.2628 11.3904 73.2628 11.7918C73.2628 12.1838 73.3515 12.5431 73.5288 12.8698C73.7061 13.1871 73.9488 13.4391 74.2568 13.6258C74.5648 13.8124 74.9055 13.9058 75.2788 13.9058ZM80.3498 15.4318V8.13776H82.2678V8.94976C82.5011 8.63243 82.7811 8.38976 83.1078 8.22176C83.4344 8.05376 83.8031 7.96976 84.2138 7.96976C84.5684 7.9791 84.8344 8.0351 85.0118 8.13776V9.81776C84.8718 9.75243 84.7178 9.70576 84.5498 9.67776C84.3818 9.64043 84.2091 9.62176 84.0318 9.62176C83.6584 9.62176 83.3178 9.7151 83.0098 9.90176C82.7018 10.0884 82.4544 10.3544 82.2678 10.6998V15.4318H80.3498ZM89.3475 15.5718C88.6195 15.5718 87.9568 15.4038 87.3595 15.0678C86.7715 14.7318 86.3048 14.2791 85.9595 13.7098C85.6142 13.1404 85.4415 12.5011 85.4415 11.7918C85.4415 11.0824 85.6048 10.4431 85.9315 9.87376C86.2675 9.30443 86.7202 8.85176 87.2895 8.51576C87.8588 8.17976 88.4935 8.01176 89.1935 8.01176C89.8935 8.01176 90.5142 8.18443 91.0555 8.52976C91.5968 8.8751 92.0215 9.34176 92.3295 9.92976C92.6468 10.5178 92.8055 11.1851 92.8055 11.9318V12.4358H87.4015C87.4855 12.7251 87.6208 12.9864 87.8075 13.2198C88.0035 13.4531 88.2415 13.6351 88.5215 13.7658C88.8108 13.8964 89.1188 13.9618 89.4455 13.9618C89.7722 13.9618 90.0708 13.9104 90.3415 13.8078C90.6215 13.7051 90.8595 13.5604 91.0555 13.3738L92.3155 14.5218C91.8675 14.8858 91.4055 15.1518 90.9295 15.3198C90.4628 15.4878 89.9355 15.5718 89.3475 15.5718ZM87.3735 11.0638H90.9155C90.8502 10.7744 90.7288 10.5224 90.5515 10.3078C90.3835 10.0838 90.1782 9.9111 89.9355 9.78976C89.7022 9.6591 89.4408 9.59376 89.1515 9.59376C88.8528 9.59376 88.5822 9.65443 88.3395 9.77576C88.0968 9.8971 87.8915 10.0698 87.7235 10.2938C87.5648 10.5084 87.4482 10.7651 87.3735 11.0638ZM100.283 15.5718C99.5643 15.5718 98.9157 15.4084 98.337 15.0818C97.7583 14.7458 97.301 14.2931 96.965 13.7238C96.629 13.1451 96.461 12.5011 96.461 11.7918C96.461 11.0731 96.629 10.4291 96.965 9.85976C97.301 9.29043 97.7583 8.83776 98.337 8.50176C98.9157 8.16576 99.5643 7.99776 100.283 7.99776C100.862 7.99776 101.412 8.10976 101.935 8.33376C102.467 8.55776 102.924 8.87976 103.307 9.29976L102.131 10.5458C101.86 10.2471 101.576 10.0278 101.277 9.88776C100.988 9.73843 100.67 9.66376 100.325 9.66376C99.9517 9.66376 99.6157 9.7571 99.317 9.94376C99.0277 10.1304 98.7943 10.3824 98.617 10.6998C98.449 11.0171 98.365 11.3811 98.365 11.7918C98.365 12.1838 98.449 12.5431 98.617 12.8698C98.7943 13.1871 99.037 13.4391 99.345 13.6258C99.653 13.8031 99.9937 13.8918 100.367 13.8918C100.694 13.8918 100.997 13.8264 101.277 13.6958C101.566 13.5558 101.842 13.3504 102.103 13.0798L103.251 14.2838C102.878 14.6851 102.43 15.0024 101.907 15.2358C101.384 15.4598 100.843 15.5718 100.283 15.5718ZM106.572 15.5578C106.05 15.5578 105.588 15.4644 105.186 15.2778C104.785 15.0818 104.472 14.8158 104.248 14.4798C104.024 14.1438 103.912 13.7564 103.912 13.3178C103.912 12.6178 104.174 12.0764 104.696 11.6938C105.228 11.3018 105.956 11.1058 106.88 11.1058C107.515 11.1058 108.112 11.2038 108.672 11.3998V10.8678C108.672 10.4478 108.542 10.1304 108.28 9.91576C108.019 9.7011 107.636 9.59376 107.132 9.59376C106.824 9.59376 106.493 9.6451 106.138 9.74776C105.784 9.8411 105.373 9.99043 104.906 10.1958L104.206 8.78176C104.785 8.52043 105.336 8.32443 105.858 8.19376C106.39 8.0631 106.922 7.99776 107.454 7.99776C108.434 7.99776 109.195 8.23576 109.736 8.71176C110.287 9.17843 110.562 9.8411 110.562 10.6998V15.4318H108.672V14.9138C108.374 15.1378 108.052 15.3011 107.706 15.4038C107.361 15.5064 106.983 15.5578 106.572 15.5578ZM105.732 13.2758C105.732 13.5558 105.854 13.7798 106.096 13.9478C106.339 14.1064 106.661 14.1858 107.062 14.1858C107.38 14.1858 107.674 14.1484 107.944 14.0738C108.215 13.9898 108.458 13.8684 108.672 13.7098V12.6458C108.439 12.5524 108.196 12.4824 107.944 12.4358C107.692 12.3891 107.422 12.3658 107.132 12.3658C106.694 12.3658 106.348 12.4498 106.096 12.6178C105.854 12.7764 105.732 12.9958 105.732 13.2758ZM112.014 15.4318V8.13776H113.932V8.94976C114.165 8.63243 114.445 8.38976 114.772 8.22176C115.098 8.05376 115.467 7.96976 115.878 7.96976C116.232 7.9791 116.498 8.0351 116.676 8.13776V9.81776C116.536 9.75243 116.382 9.70576 116.214 9.67776C116.046 9.64043 115.873 9.62176 115.696 9.62176C115.322 9.62176 114.982 9.7151 114.674 9.90176C114.366 10.0884 114.118 10.3544 113.932 10.6998V15.4318H112.014ZM120.816 15.5298C120.125 15.5298 119.5 15.3618 118.94 15.0258C118.38 14.6898 117.932 14.2418 117.596 13.6818C117.269 13.1124 117.106 12.4778 117.106 11.7778C117.106 11.0778 117.269 10.4478 117.596 9.88776C117.932 9.31843 118.384 8.87043 118.954 8.54376C119.523 8.20776 120.162 8.03976 120.872 8.03976C121.236 8.03976 121.586 8.0911 121.922 8.19376C122.258 8.2871 122.57 8.4271 122.86 8.61376V5.63176L124.778 5.30976V15.4318H122.888V14.8298C122.29 15.2964 121.6 15.5298 120.816 15.5298ZM121.124 13.8918C121.478 13.8918 121.8 13.8358 122.09 13.7238C122.388 13.6024 122.645 13.4251 122.86 13.1918V10.3498C122.645 10.1351 122.388 9.9671 122.09 9.84576C121.791 9.72443 121.469 9.66376 121.124 9.66376C120.722 9.66376 120.358 9.7571 120.032 9.94376C119.714 10.1211 119.462 10.3731 119.276 10.6998C119.089 11.0171 118.996 11.3764 118.996 11.7778C118.996 12.1791 119.089 12.5384 119.276 12.8558C119.462 13.1731 119.714 13.4251 120.032 13.6118C120.358 13.7984 120.722 13.8918 121.124 13.8918Z" fill="#0B105C"/>
</svg>
