<svg width="28" height="27" viewBox="0 0 28 27" fill="none" xmlns="http://www.w3.org/2000/svg">
<g filter="url(#filter0_d_13_1508)">
<path d="M13.7277 23.3475C19.7449 23.3475 24.6228 18.5756 24.6228 12.6892C24.6228 6.80276 19.7449 2.03088 13.7277 2.03088C7.71044 2.03088 2.83252 6.80276 2.83252 12.6892C2.83252 18.5756 7.71044 23.3475 13.7277 23.3475Z" fill="#F5F5F5"/>
</g>
<g opacity="0.8">
<g filter="url(#filter1_d_13_1508)">
<path d="M16.1377 6.4444C16.1761 6.94385 16.075 7.44415 15.8459 7.88959C15.6167 8.33502 15.2684 8.70812 14.8398 8.96733C14.5009 9.18622 14.0955 9.27819 13.6953 9.22693C13.6986 9.02498 13.7145 8.82344 13.7427 8.62344C13.8479 8.08538 14.1133 7.59164 14.504 7.20702C14.8947 6.8224 15.3925 6.56483 15.9322 6.46808C15.9542 6.46193 15.9757 6.45419 15.9966 6.44489L16.1377 6.4444Z" fill="black"/>
</g>
<g filter="url(#filter2_d_13_1508)">
<path d="M18.6695 15.3288C18.5952 15.5216 18.5303 15.7077 18.4526 15.8859C18.1337 16.6068 17.7107 17.2772 17.1972 17.8754C16.9512 18.2038 16.5922 18.4296 16.1896 18.5092C15.844 18.5507 15.4936 18.5018 15.1726 18.3671C14.9405 18.2828 14.7093 18.1899 14.472 18.1227C14.0382 18.0098 13.5798 18.0362 13.1618 18.198C12.8614 18.3022 12.5616 18.4088 12.2575 18.5007C12.081 18.5545 11.894 18.5638 11.7131 18.5278C11.5321 18.4917 11.3629 18.4115 11.2205 18.2941C10.9724 18.1075 10.746 17.8936 10.5455 17.6566C9.6505 16.5881 9.0682 15.293 8.86294 13.9143C8.71939 13.1444 8.76553 12.3511 8.99744 11.6031C9.13872 11.1104 9.39985 10.6605 9.75743 10.2933C10.115 9.92612 10.5579 9.65322 11.0467 9.49895C11.5465 9.34072 12.0845 9.35204 12.5772 9.53116C12.8747 9.633 13.1674 9.7462 13.4626 9.8561C13.6956 9.93447 13.9492 9.92521 14.1759 9.83005C14.5998 9.65226 15.0392 9.51415 15.4886 9.41747C16.011 9.30809 16.5539 9.35251 17.0515 9.54538C17.5492 9.73825 17.9802 10.0713 18.2924 10.5041C18.3062 10.5226 18.3185 10.5435 18.337 10.5719C17.9033 10.8131 17.55 11.1761 17.3207 11.6162C17.0914 12.0562 16.9963 12.5539 17.0471 13.0474C17.0729 13.5425 17.2392 14.02 17.5265 14.4241C17.8138 14.8281 18.2103 15.1419 18.6695 15.3288Z" fill="black"/>
</g>
</g>
<defs>
<filter id="filter0_d_13_1508" x="0.40279" y="0.00610924" width="26.6495" height="26.176" filterUnits="userSpaceOnUse" color-interpolation-filters="sRGB">
<feFlood flood-opacity="0" result="BackgroundImageFix"/>
<feColorMatrix in="SourceAlpha" type="matrix" values="0 0 0 0 0 0 0 0 0 0 0 0 0 0 0 0 0 0 127 0" result="hardAlpha"/>
<feOffset dy="0.404955"/>
<feGaussianBlur stdDeviation="1.21486"/>
<feColorMatrix type="matrix" values="0 0 0 0 0 0 0 0 0 0 0 0 0 0 0 0 0 0 0.161 0"/>
<feBlend mode="normal" in2="BackgroundImageFix" result="effect1_dropShadow_13_1508"/>
<feBlend mode="normal" in="SourceGraphic" in2="effect1_dropShadow_13_1508" result="shape"/>
</filter>
<filter id="filter1_d_13_1508" x="12.4804" y="6.4444" width="4.87992" height="5.22612" filterUnits="userSpaceOnUse" color-interpolation-filters="sRGB">
<feFlood flood-opacity="0" result="BackgroundImageFix"/>
<feColorMatrix in="SourceAlpha" type="matrix" values="0 0 0 0 0 0 0 0 0 0 0 0 0 0 0 0 0 0 127 0" result="hardAlpha"/>
<feOffset dy="1.21486"/>
<feGaussianBlur stdDeviation="0.607432"/>
<feColorMatrix type="matrix" values="0 0 0 0 0 0 0 0 0 0 0 0 0 0 0 0 0 0 0.161 0"/>
<feBlend mode="normal" in2="BackgroundImageFix" result="effect1_dropShadow_13_1508"/>
<feBlend mode="normal" in="SourceGraphic" in2="effect1_dropShadow_13_1508" result="shape"/>
</filter>
<filter id="filter2_d_13_1508" x="7.56639" y="9.35889" width="12.3179" height="11.6202" filterUnits="userSpaceOnUse" color-interpolation-filters="sRGB">
<feFlood flood-opacity="0" result="BackgroundImageFix"/>
<feColorMatrix in="SourceAlpha" type="matrix" values="0 0 0 0 0 0 0 0 0 0 0 0 0 0 0 0 0 0 127 0" result="hardAlpha"/>
<feOffset dy="1.21486"/>
<feGaussianBlur stdDeviation="0.607432"/>
<feColorMatrix type="matrix" values="0 0 0 0 0 0 0 0 0 0 0 0 0 0 0 0 0 0 0.161 0"/>
<feBlend mode="normal" in2="BackgroundImageFix" result="effect1_dropShadow_13_1508"/>
<feBlend mode="normal" in="SourceGraphic" in2="effect1_dropShadow_13_1508" result="shape"/>
</filter>
</defs>
</svg>
