<svg width="25" height="25" viewBox="0 0 25 25" fill="none" xmlns="http://www.w3.org/2000/svg">
<path d="M11.9414 2.56638C12.0646 2.48425 12.2093 2.44043 12.3574 2.44043C12.5055 2.44043 12.6502 2.48425 12.7734 2.56638L21.7734 8.56638C21.8565 8.62048 21.9281 8.69054 21.984 8.7725C22.0398 8.85445 22.0789 8.94667 22.0989 9.04382C22.1189 9.14097 22.1194 9.24112 22.1004 9.33848C22.0814 9.43583 22.0433 9.52845 21.9883 9.61097C21.9333 9.6935 21.8624 9.7643 21.7799 9.81926C21.6973 9.87422 21.6047 9.91227 21.5073 9.93118C21.4099 9.9501 21.3098 9.94952 21.2127 9.92947C21.1155 9.90942 21.0233 9.8703 20.9414 9.81437L12.3574 4.09138L3.7734 9.81437C3.60789 9.92211 3.40657 9.96021 3.21313 9.92042C3.0197 9.88062 2.84977 9.76614 2.74022 9.60183C2.63068 9.43751 2.59036 9.23662 2.62803 9.04276C2.66569 8.8489 2.7783 8.67772 2.9414 8.56638L11.9414 2.56638Z" fill="#0B105C"/>
<path fill-rule="evenodd" clip-rule="evenodd" d="M20.6074 10.5224V20.4404H21.3574C21.5563 20.4404 21.7471 20.5194 21.8878 20.6601C22.0284 20.8008 22.1074 20.9915 22.1074 21.1904C22.1074 21.3893 22.0284 21.5801 21.8878 21.7208C21.7471 21.8614 21.5563 21.9404 21.3574 21.9404H3.35742C3.15851 21.9404 2.96774 21.8614 2.82709 21.7208C2.68644 21.5801 2.60742 21.3893 2.60742 21.1904C2.60742 20.9915 2.68644 20.8008 2.82709 20.6601C2.96774 20.5194 3.15851 20.4404 3.35742 20.4404H4.10742V10.5224C4.10765 10.3438 4.17164 10.1711 4.28787 10.0354C4.4041 9.89978 4.56493 9.81006 4.74142 9.78243C7.26087 9.38765 9.80723 9.18972 12.3574 9.19043C14.9474 9.19043 17.4914 9.39243 19.9734 9.78243C20.1499 9.81006 20.3107 9.89978 20.427 10.0354C20.5432 10.1711 20.6072 10.3438 20.6074 10.5224ZM13.1074 12.9404C13.1074 12.7415 13.0284 12.5508 12.8878 12.4101C12.7471 12.2694 12.5563 12.1904 12.3574 12.1904C12.1585 12.1904 11.9677 12.2694 11.8271 12.4101C11.6864 12.5508 11.6074 12.7415 11.6074 12.9404V19.6904C11.6074 19.8893 11.6864 20.0801 11.8271 20.2208C11.9677 20.3614 12.1585 20.4404 12.3574 20.4404C12.5563 20.4404 12.7471 20.3614 12.8878 20.2208C13.0284 20.0801 13.1074 19.8893 13.1074 19.6904V12.9404ZM16.1074 12.1904C16.3063 12.1904 16.4971 12.2694 16.6378 12.4101C16.7784 12.5508 16.8574 12.7415 16.8574 12.9404V19.6904C16.8574 19.8893 16.7784 20.0801 16.6378 20.2208C16.4971 20.3614 16.3063 20.4404 16.1074 20.4404C15.9085 20.4404 15.7177 20.3614 15.5771 20.2208C15.4364 20.0801 15.3574 19.8893 15.3574 19.6904V12.9404C15.3574 12.7415 15.4364 12.5508 15.5771 12.4101C15.7177 12.2694 15.9085 12.1904 16.1074 12.1904ZM9.35742 12.9404C9.35742 12.7415 9.2784 12.5508 9.13775 12.4101C8.9971 12.2694 8.80633 12.1904 8.60742 12.1904C8.40851 12.1904 8.21774 12.2694 8.07709 12.4101C7.93644 12.5508 7.85742 12.7415 7.85742 12.9404V19.6904C7.85742 19.8893 7.93644 20.0801 8.07709 20.2208C8.21774 20.3614 8.40851 20.4404 8.60742 20.4404C8.80633 20.4404 8.9971 20.3614 9.13775 20.2208C9.2784 20.0801 9.35742 19.8893 9.35742 19.6904V12.9404Z" fill="#0B105C"/>
<path d="M12.3574 8.06543C12.6558 8.06543 12.9419 7.9469 13.1529 7.73592C13.3639 7.52495 13.4824 7.2388 13.4824 6.94043C13.4824 6.64206 13.3639 6.35591 13.1529 6.14493C12.9419 5.93396 12.6558 5.81543 12.3574 5.81543C12.0591 5.81543 11.7729 5.93396 11.5619 6.14493C11.3509 6.35591 11.2324 6.64206 11.2324 6.94043C11.2324 7.2388 11.3509 7.52495 11.5619 7.73592C11.7729 7.9469 12.0591 8.06543 12.3574 8.06543Z" fill="#0B105C"/>
</svg>
