<svg width="23" height="25" viewBox="0 0 23 25" fill="none" xmlns="http://www.w3.org/2000/svg">
<path fill-rule="evenodd" clip-rule="evenodd" d="M2.9689 9.2893C2.9689 7.09032 3.84244 4.98141 5.39735 3.4265C6.95226 1.87159 9.06117 0.998047 11.2601 0.998047C13.4591 0.998047 15.568 1.87159 17.123 3.4265C18.6779 4.98141 19.5514 7.09032 19.5514 9.2893V10.2113C19.5471 12.7159 20.4742 15.1325 22.1526 16.9915C22.2533 17.1033 22.325 17.2381 22.3617 17.384C22.3983 17.53 22.3986 17.6827 22.3626 17.8288C22.3267 17.9749 22.2555 18.11 22.1553 18.2223C22.0551 18.3345 21.929 18.4206 21.7879 18.4729C19.8669 19.1818 17.8786 19.6933 15.854 19.9994C15.9078 20.6353 15.8289 21.2754 15.6225 21.8793C15.416 22.4831 15.0865 23.0375 14.6546 23.5074C14.2228 23.9773 13.6981 24.3524 13.1138 24.609C12.5295 24.8656 11.8983 24.998 11.2601 24.998C10.622 24.998 9.99077 24.8656 9.40647 24.609C8.82216 24.3524 8.29749 23.9773 7.86567 23.5074C7.43385 23.0375 7.10428 22.4831 6.89783 21.8793C6.69138 21.2754 6.61254 20.6353 6.66631 19.9994C4.64164 19.6924 2.65344 19.1802 0.732422 18.4708C0.591436 18.4186 0.465371 18.3326 0.365211 18.2205C0.265051 18.1083 0.193837 17.9734 0.157773 17.8274C0.12171 17.6815 0.121892 17.5289 0.158303 17.383C0.194714 17.2371 0.26625 17.1023 0.366676 16.9904C2.04527 15.1315 2.97277 12.7149 2.9689 10.2103V9.2893ZM8.50118 20.2217C8.47944 20.5978 8.53474 20.9743 8.6637 21.3283C8.79265 21.6822 8.99254 22.0061 9.25111 22.28C9.50967 22.554 9.82147 22.7722 10.1674 22.9214C10.5133 23.0705 10.886 23.1475 11.2627 23.1475C11.6394 23.1475 12.0121 23.0705 12.358 22.9214C12.704 22.7722 13.0157 22.554 13.2743 22.28C13.5329 22.0061 13.7328 21.6822 13.8617 21.3283C13.9907 20.9743 14.046 20.5978 14.0242 20.2217C12.1869 20.3872 10.3385 20.3872 8.50118 20.2217Z" fill="white"/>
</svg>
