<svg width="19" height="14" viewBox="0 0 19 14" fill="none" xmlns="http://www.w3.org/2000/svg">
<path d="M17.1 0H1.9C1.39774 0.00231308 0.916901 0.187708 0.562634 0.515646C0.208367 0.843585 0.00949371 1.28738 0.00949999 1.75L0 12.25C0.00150359 12.7137 0.202164 13.158 0.558158 13.4859C0.914152 13.8138 1.39655 13.9986 1.9 14H17.1C17.6035 13.9986 18.0859 13.8138 18.4418 13.4859C18.7978 13.158 18.9985 12.7137 19 12.25V1.75C18.9985 1.2863 18.7978 0.841982 18.4418 0.514093C18.0859 0.186204 17.6035 0.00138489 17.1 0ZM17.1 3.5L9.5 7.875L1.9 3.5V1.75L9.5 6.125L17.1 1.75V3.5Z" fill="#0B105C"/>
</svg>
