<svg width="24" height="24" viewBox="0 0 24 24" fill="none" xmlns="http://www.w3.org/2000/svg">
<path d="M12.75 12.75C12.75 12.9489 12.671 13.1397 12.5303 13.2803C12.3897 13.421 12.1989 13.5 12 13.5C11.8011 13.5 11.6103 13.421 11.4697 13.2803C11.329 13.1397 11.25 12.9489 11.25 12.75C11.25 12.5511 11.329 12.3603 11.4697 12.2197C11.6103 12.079 11.8011 12 12 12C12.1989 12 12.3897 12.079 12.5303 12.2197C12.671 12.3603 12.75 12.5511 12.75 12.75ZM7.5 15.75C7.69891 15.75 7.88968 15.671 8.03033 15.5303C8.17098 15.3897 8.25 15.1989 8.25 15C8.25 14.8011 8.17098 14.6103 8.03033 14.4697C7.88968 14.329 7.69891 14.25 7.5 14.25C7.30109 14.25 7.11032 14.329 6.96967 14.4697C6.82902 14.6103 6.75 14.8011 6.75 15C6.75 15.1989 6.82902 15.3897 6.96967 15.5303C7.11032 15.671 7.30109 15.75 7.5 15.75ZM8.25 17.25C8.25 17.4489 8.17098 17.6397 8.03033 17.7803C7.88968 17.921 7.69891 18 7.5 18C7.30109 18 7.11032 17.921 6.96967 17.7803C6.82902 17.6397 6.75 17.4489 6.75 17.25C6.75 17.0511 6.82902 16.8603 6.96967 16.7197C7.11032 16.579 7.30109 16.5 7.5 16.5C7.69891 16.5 7.88968 16.579 8.03033 16.7197C8.17098 16.8603 8.25 17.0511 8.25 17.25ZM9.75 15.75C9.94891 15.75 10.1397 15.671 10.2803 15.5303C10.421 15.3897 10.5 15.1989 10.5 15C10.5 14.8011 10.421 14.6103 10.2803 14.4697C10.1397 14.329 9.94891 14.25 9.75 14.25C9.55109 14.25 9.36032 14.329 9.21967 14.4697C9.07902 14.6103 9 14.8011 9 15C9 15.1989 9.07902 15.3897 9.21967 15.5303C9.36032 15.671 9.55109 15.75 9.75 15.75ZM10.5 17.25C10.5 17.4489 10.421 17.6397 10.2803 17.7803C10.1397 17.921 9.94891 18 9.75 18C9.55109 18 9.36032 17.921 9.21967 17.7803C9.07902 17.6397 9 17.4489 9 17.25C9 17.0511 9.07902 16.8603 9.21967 16.7197C9.36032 16.579 9.55109 16.5 9.75 16.5C9.94891 16.5 10.1397 16.579 10.2803 16.7197C10.421 16.8603 10.5 17.0511 10.5 17.25ZM12 15.75C12.1989 15.75 12.3897 15.671 12.5303 15.5303C12.671 15.3897 12.75 15.1989 12.75 15C12.75 14.8011 12.671 14.6103 12.5303 14.4697C12.3897 14.329 12.1989 14.25 12 14.25C11.8011 14.25 11.6103 14.329 11.4697 14.4697C11.329 14.6103 11.25 14.8011 11.25 15C11.25 15.1989 11.329 15.3897 11.4697 15.5303C11.6103 15.671 11.8011 15.75 12 15.75ZM12.75 17.25C12.75 17.4489 12.671 17.6397 12.5303 17.7803C12.3897 17.921 12.1989 18 12 18C11.8011 18 11.6103 17.921 11.4697 17.7803C11.329 17.6397 11.25 17.4489 11.25 17.25C11.25 17.0511 11.329 16.8603 11.4697 16.7197C11.6103 16.579 11.8011 16.5 12 16.5C12.1989 16.5 12.3897 16.579 12.5303 16.7197C12.671 16.8603 12.75 17.0511 12.75 17.25ZM14.25 15.75C14.4489 15.75 14.6397 15.671 14.7803 15.5303C14.921 15.3897 15 15.1989 15 15C15 14.8011 14.921 14.6103 14.7803 14.4697C14.6397 14.329 14.4489 14.25 14.25 14.25C14.0511 14.25 13.8603 14.329 13.7197 14.4697C13.579 14.6103 13.5 14.8011 13.5 15C13.5 15.1989 13.579 15.3897 13.7197 15.5303C13.8603 15.671 14.0511 15.75 14.25 15.75ZM15 17.25C15 17.4489 14.921 17.6397 14.7803 17.7803C14.6397 17.921 14.4489 18 14.25 18C14.0511 18 13.8603 17.921 13.7197 17.7803C13.579 17.6397 13.5 17.4489 13.5 17.25C13.5 17.0511 13.579 16.8603 13.7197 16.7197C13.8603 16.579 14.0511 16.5 14.25 16.5C14.4489 16.5 14.6397 16.579 14.7803 16.7197C14.921 16.8603 15 17.0511 15 17.25ZM16.5 15.75C16.6989 15.75 16.8897 15.671 17.0303 15.5303C17.171 15.3897 17.25 15.1989 17.25 15C17.25 14.8011 17.171 14.6103 17.0303 14.4697C16.8897 14.329 16.6989 14.25 16.5 14.25C16.3011 14.25 16.1103 14.329 15.9697 14.4697C15.829 14.6103 15.75 14.8011 15.75 15C15.75 15.1989 15.829 15.3897 15.9697 15.5303C16.1103 15.671 16.3011 15.75 16.5 15.75ZM15 12.75C15 12.9489 14.921 13.1397 14.7803 13.2803C14.6397 13.421 14.4489 13.5 14.25 13.5C14.0511 13.5 13.8603 13.421 13.7197 13.2803C13.579 13.1397 13.5 12.9489 13.5 12.75C13.5 12.5511 13.579 12.3603 13.7197 12.2197C13.8603 12.079 14.0511 12 14.25 12C14.4489 12 14.6397 12.079 14.7803 12.2197C14.921 12.3603 15 12.5511 15 12.75ZM16.5 13.5C16.6989 13.5 16.8897 13.421 17.0303 13.2803C17.171 13.1397 17.25 12.9489 17.25 12.75C17.25 12.5511 17.171 12.3603 17.0303 12.2197C16.8897 12.079 16.6989 12 16.5 12C16.3011 12 16.1103 12.079 15.9697 12.2197C15.829 12.3603 15.75 12.5511 15.75 12.75C15.75 12.9489 15.829 13.1397 15.9697 13.2803C16.1103 13.421 16.3011 13.5 16.5 13.5Z" fill="#0B105C"/>
<path fill-rule="evenodd" clip-rule="evenodd" d="M6.51923 2.25C6.70794 2.25 6.88893 2.32497 7.02236 2.4584C7.1558 2.59184 7.23077 2.77283 7.23077 2.96154V4.38462H15.7692V2.96154C15.7692 2.77283 15.8442 2.59184 15.9776 2.4584C16.1111 2.32497 16.2921 2.25 16.4808 2.25C16.6695 2.25 16.8505 2.32497 16.9839 2.4584C17.1173 2.59184 17.1923 2.77283 17.1923 2.96154V4.38462H17.9038C18.6587 4.38462 19.3826 4.68448 19.9164 5.21823C20.4501 5.75199 20.75 6.47592 20.75 7.23077V17.9038C20.75 18.6587 20.4501 19.3826 19.9164 19.9164C19.3826 20.4501 18.6587 20.75 17.9038 20.75H5.09615C4.34131 20.75 3.61738 20.4501 3.08362 19.9164C2.54986 19.3826 2.25 18.6587 2.25 17.9038V7.23077C2.25 6.47592 2.54986 5.75199 3.08362 5.21823C3.61738 4.68448 4.34131 4.38462 5.09615 4.38462H5.80769V2.96154C5.80769 2.77283 5.88266 2.59184 6.0161 2.4584C6.14954 2.32497 6.33052 2.25 6.51923 2.25ZM19.3269 10.7885C19.3269 10.411 19.177 10.0491 18.9101 9.78219C18.6432 9.51532 18.2813 9.36538 17.9038 9.36538H5.09615C4.71873 9.36538 4.35677 9.51532 4.08989 9.78219C3.82301 10.0491 3.67308 10.411 3.67308 10.7885V17.9038C3.67308 18.2813 3.82301 18.6432 4.08989 18.9101C4.35677 19.177 4.71873 19.3269 5.09615 19.3269H17.9038C18.2813 19.3269 18.6432 19.177 18.9101 18.9101C19.177 18.6432 19.3269 18.2813 19.3269 17.9038V10.7885Z" fill="#0B105C"/>
</svg>
