<svg width="20" height="20" viewBox="0 0 20 20" fill="none" xmlns="http://www.w3.org/2000/svg">
<path d="M10.8281 10.6761C10.8281 10.8751 10.7491 11.0658 10.6085 11.2065C10.4678 11.3471 10.277 11.4261 10.0781 11.4261C9.87921 11.4261 9.68845 11.3471 9.5478 11.2065C9.40714 11.0658 9.32812 10.8751 9.32812 10.6761C9.32812 10.4772 9.40714 10.2865 9.5478 10.1458C9.68845 10.0052 9.87921 9.92615 10.0781 9.92615C10.277 9.92615 10.4678 10.0052 10.6085 10.1458C10.7491 10.2865 10.8281 10.4772 10.8281 10.6761ZM5.57812 13.6761C5.77704 13.6761 5.9678 13.5971 6.10845 13.4565C6.24911 13.3158 6.32812 13.1251 6.32812 12.9261C6.32812 12.7272 6.24911 12.5365 6.10845 12.3958C5.9678 12.2552 5.77704 12.1761 5.57812 12.1761C5.37921 12.1761 5.18845 12.2552 5.04779 12.3958C4.90714 12.5365 4.82813 12.7272 4.82812 12.9261C4.82813 13.1251 4.90714 13.3158 5.04779 13.4565C5.18845 13.5971 5.37921 13.6761 5.57812 13.6761ZM6.32812 15.1761C6.32812 15.3751 6.24911 15.5658 6.10845 15.7065C5.9678 15.8471 5.77704 15.9261 5.57812 15.9261C5.37921 15.9261 5.18845 15.8471 5.04779 15.7065C4.90714 15.5658 4.82813 15.3751 4.82812 15.1761C4.82812 14.9772 4.90714 14.7865 5.04779 14.6458C5.18845 14.5052 5.37921 14.4261 5.57812 14.4261C5.77704 14.4261 5.9678 14.5052 6.10845 14.6458C6.24911 14.7865 6.32812 14.9772 6.32812 15.1761ZM7.82812 13.6761C8.02704 13.6761 8.2178 13.5971 8.35845 13.4565C8.49911 13.3158 8.57812 13.1251 8.57812 12.9261C8.57812 12.7272 8.49911 12.5365 8.35845 12.3958C8.2178 12.2552 8.02704 12.1761 7.82812 12.1761C7.62921 12.1761 7.43845 12.2552 7.2978 12.3958C7.15714 12.5365 7.07812 12.7272 7.07812 12.9261C7.07812 13.1251 7.15714 13.3158 7.2978 13.4565C7.43845 13.5971 7.62921 13.6761 7.82812 13.6761ZM8.57812 15.1761C8.57812 15.3751 8.49911 15.5658 8.35845 15.7065C8.2178 15.8471 8.02704 15.9261 7.82812 15.9261C7.62921 15.9261 7.43845 15.8471 7.2978 15.7065C7.15714 15.5658 7.07812 15.3751 7.07812 15.1761C7.07812 14.9772 7.15714 14.7865 7.2978 14.6458C7.43845 14.5052 7.62921 14.4261 7.82812 14.4261C8.02704 14.4261 8.2178 14.5052 8.35845 14.6458C8.49911 14.7865 8.57812 14.9772 8.57812 15.1761ZM10.0781 13.6761C10.277 13.6761 10.4678 13.5971 10.6085 13.4565C10.7491 13.3158 10.8281 13.1251 10.8281 12.9261C10.8281 12.7272 10.7491 12.5365 10.6085 12.3958C10.4678 12.2552 10.277 12.1761 10.0781 12.1761C9.87921 12.1761 9.68845 12.2552 9.5478 12.3958C9.40714 12.5365 9.32812 12.7272 9.32812 12.9261C9.32812 13.1251 9.40714 13.3158 9.5478 13.4565C9.68845 13.5971 9.87921 13.6761 10.0781 13.6761ZM10.8281 15.1761C10.8281 15.3751 10.7491 15.5658 10.6085 15.7065C10.4678 15.8471 10.277 15.9261 10.0781 15.9261C9.87921 15.9261 9.68845 15.8471 9.5478 15.7065C9.40714 15.5658 9.32812 15.3751 9.32812 15.1761C9.32812 14.9772 9.40714 14.7865 9.5478 14.6458C9.68845 14.5052 9.87921 14.4261 10.0781 14.4261C10.277 14.4261 10.4678 14.5052 10.6085 14.6458C10.7491 14.7865 10.8281 14.9772 10.8281 15.1761ZM12.3281 13.6761C12.527 13.6761 12.7178 13.5971 12.8585 13.4565C12.9991 13.3158 13.0781 13.1251 13.0781 12.9261C13.0781 12.7272 12.9991 12.5365 12.8585 12.3958C12.7178 12.2552 12.527 12.1761 12.3281 12.1761C12.1292 12.1761 11.9384 12.2552 11.7978 12.3958C11.6571 12.5365 11.5781 12.7272 11.5781 12.9261C11.5781 13.1251 11.6571 13.3158 11.7978 13.4565C11.9384 13.5971 12.1292 13.6761 12.3281 13.6761ZM13.0781 15.1761C13.0781 15.3751 12.9991 15.5658 12.8585 15.7065C12.7178 15.8471 12.527 15.9261 12.3281 15.9261C12.1292 15.9261 11.9384 15.8471 11.7978 15.7065C11.6571 15.5658 11.5781 15.3751 11.5781 15.1761C11.5781 14.9772 11.6571 14.7865 11.7978 14.6458C11.9384 14.5052 12.1292 14.4261 12.3281 14.4261C12.527 14.4261 12.7178 14.5052 12.8585 14.6458C12.9991 14.7865 13.0781 14.9772 13.0781 15.1761ZM14.5781 13.6761C14.777 13.6761 14.9678 13.5971 15.1085 13.4565C15.2491 13.3158 15.3281 13.1251 15.3281 12.9261C15.3281 12.7272 15.2491 12.5365 15.1085 12.3958C14.9678 12.2552 14.777 12.1761 14.5781 12.1761C14.3792 12.1761 14.1884 12.2552 14.0478 12.3958C13.9071 12.5365 13.8281 12.7272 13.8281 12.9261C13.8281 13.1251 13.9071 13.3158 14.0478 13.4565C14.1884 13.5971 14.3792 13.6761 14.5781 13.6761ZM13.0781 10.6761C13.0781 10.8751 12.9991 11.0658 12.8585 11.2065C12.7178 11.3471 12.527 11.4261 12.3281 11.4261C12.1292 11.4261 11.9384 11.3471 11.7978 11.2065C11.6571 11.0658 11.5781 10.8751 11.5781 10.6761C11.5781 10.4772 11.6571 10.2865 11.7978 10.1458C11.9384 10.0052 12.1292 9.92615 12.3281 9.92615C12.527 9.92615 12.7178 10.0052 12.8585 10.1458C12.9991 10.2865 13.0781 10.4772 13.0781 10.6761ZM14.5781 11.4261C14.777 11.4261 14.9678 11.3471 15.1085 11.2065C15.2491 11.0658 15.3281 10.8751 15.3281 10.6761C15.3281 10.4772 15.2491 10.2865 15.1085 10.1458C14.9678 10.0052 14.777 9.92615 14.5781 9.92615C14.3792 9.92615 14.1884 10.0052 14.0478 10.1458C13.9071 10.2865 13.8281 10.4772 13.8281 10.6761C13.8281 10.8751 13.9071 11.0658 14.0478 11.2065C14.1884 11.3471 14.3792 11.4261 14.5781 11.4261Z" fill="#0B105C"/>
<path fill-rule="evenodd" clip-rule="evenodd" d="M4.82812 0.176147C5.02704 0.176147 5.2178 0.255165 5.35846 0.395817C5.49911 0.53647 5.57812 0.727235 5.57812 0.926147V2.42615H14.5781V0.926147C14.5781 0.727235 14.6571 0.53647 14.7978 0.395817C14.9384 0.255165 15.1292 0.176147 15.3281 0.176147C15.527 0.176147 15.7178 0.255165 15.8585 0.395817C15.9991 0.53647 16.0781 0.727235 16.0781 0.926147V2.42615H16.8281C17.6238 2.42615 18.3868 2.74222 18.9494 3.30483C19.5121 3.86744 19.8281 4.6305 19.8281 5.42615V16.6761C19.8281 17.4718 19.5121 18.2349 18.9494 18.7975C18.3868 19.3601 17.6238 19.6761 16.8281 19.6761H3.32812C2.53248 19.6761 1.76941 19.3601 1.2068 18.7975C0.644196 18.2349 0.328125 17.4718 0.328125 16.6761V5.42615C0.328125 4.6305 0.644196 3.86744 1.2068 3.30483C1.76941 2.74222 2.53248 2.42615 3.32812 2.42615H4.07812V0.926147C4.07812 0.727235 4.15714 0.53647 4.29779 0.395817C4.43845 0.255165 4.62921 0.176147 4.82812 0.176147ZM18.3281 9.17615C18.3281 8.77832 18.1701 8.39679 17.8888 8.11549C17.6075 7.83418 17.226 7.67615 16.8281 7.67615H3.32812C2.9303 7.67615 2.54877 7.83418 2.26746 8.11549C1.98616 8.39679 1.82812 8.77832 1.82812 9.17615V16.6761C1.82812 17.074 1.98616 17.4555 2.26746 17.7368C2.54877 18.0181 2.9303 18.1761 3.32812 18.1761H16.8281C17.226 18.1761 17.6075 18.0181 17.8888 17.7368C18.1701 17.4555 18.3281 17.074 18.3281 16.6761V9.17615Z" fill="#0B105C"/>
</svg>
