<svg width="19" height="19" viewBox="0 0 19 19" fill="none" xmlns="http://www.w3.org/2000/svg">
<path d="M1.28125 4.78516C1.28125 11.6885 6.87792 17.2852 13.7812 17.2852H15.6562C16.1535 17.2852 16.6304 17.0876 16.9821 16.736C17.3337 16.3844 17.5312 15.9074 17.5312 15.4102V14.2668C17.5312 13.8368 17.2388 13.4618 16.8213 13.3577L13.1354 12.436C12.7688 12.3443 12.3837 12.4818 12.1579 12.7835L11.3496 13.861C11.1146 14.1743 10.7087 14.3127 10.3412 14.1777C8.97698 13.6761 7.73804 12.884 6.71023 11.8562C5.68243 10.8284 4.89031 9.58942 4.38875 8.22516C4.25375 7.85766 4.39208 7.45182 4.70542 7.21682L5.78292 6.40849C6.08542 6.18266 6.22208 5.79682 6.13042 5.43099L5.20875 1.74516C5.15803 1.5424 5.04102 1.36241 4.87629 1.23377C4.71157 1.10513 4.50859 1.03523 4.29958 1.03516H3.15625C2.65897 1.03516 2.18206 1.2327 1.83042 1.58433C1.47879 1.93596 1.28125 2.41288 1.28125 2.91016V4.78516Z" stroke="#9C9C9C" stroke-width="1.5" stroke-linecap="round" stroke-linejoin="round"/>
</svg>
