<svg width="31" height="31" viewBox="0 0 31 31" fill="none" xmlns="http://www.w3.org/2000/svg">
<path d="M15.2899 11.4675C14.0226 11.4675 12.8073 11.9709 11.9112 12.867C11.0151 13.7631 10.5117 14.9784 10.5117 16.2457C10.5117 17.5129 11.0151 18.7283 11.9112 19.6243C12.8073 20.5204 14.0226 21.0238 15.2899 21.0238C16.5571 21.0238 17.7724 20.5204 18.6685 19.6243C19.5646 18.7283 20.068 17.5129 20.068 16.2457C20.068 14.9784 19.5646 13.7631 18.6685 12.867C17.7724 11.9709 16.5571 11.4675 15.2899 11.4675Z" fill="#0B105C"/>
<path fill-rule="evenodd" clip-rule="evenodd" d="M11.9067 3.91296C14.1612 3.79187 16.4206 3.79187 18.6751 3.91296C19.9072 3.97922 21.0068 4.65835 21.6465 5.68406L22.6926 7.36215C22.9984 7.85015 23.5144 8.18144 24.1069 8.26681C24.5987 8.33561 25.088 8.41079 25.5747 8.49234C27.3994 8.79686 28.6697 10.3947 28.6697 12.1989V22.9351C28.6697 23.9489 28.267 24.9211 27.5501 25.638C26.8333 26.3549 25.861 26.7576 24.8472 26.7576H5.73462C4.72083 26.7576 3.74856 26.3549 3.0317 25.638C2.31484 24.9211 1.91211 23.9489 1.91211 22.9351V12.1989C1.91211 10.3947 3.18246 8.79686 5.00707 8.49234C5.49381 8.41079 5.98309 8.33561 6.47364 8.26553C6.76111 8.22706 7.03668 8.12614 7.28101 7.96986C7.52534 7.81358 7.73251 7.60572 7.88797 7.36087L8.93534 5.68534C9.25197 5.17319 9.68731 4.74485 10.2045 4.43656C10.7217 4.12827 11.3056 3.94784 11.9067 3.91296ZM8.60151 16.2457C8.60151 14.4715 9.30628 12.7701 10.5608 11.5155C11.8153 10.261 13.5168 9.55627 15.2909 9.55627C17.065 9.55627 18.7665 10.261 20.021 11.5155C21.2755 12.7701 21.9803 14.4715 21.9803 16.2457C21.9803 18.0198 21.2755 19.7213 20.021 20.9758C18.7665 22.2303 17.065 22.9351 15.2909 22.9351C13.5168 22.9351 11.8153 22.2303 10.5608 20.9758C9.30628 19.7213 8.60151 18.0198 8.60151 16.2457ZM23.8916 14.3344C24.145 14.3344 24.3881 14.2337 24.5673 14.0545C24.7465 13.8753 24.8472 13.6322 24.8472 13.3788C24.8472 13.1253 24.7465 12.8823 24.5673 12.7031C24.3881 12.5238 24.145 12.4232 23.8916 12.4232C23.6381 12.4232 23.3951 12.5238 23.2158 12.7031C23.0366 12.8823 22.9359 13.1253 22.9359 13.3788C22.9359 13.6322 23.0366 13.8753 23.2158 14.0545C23.3951 14.2337 23.6381 14.3344 23.8916 14.3344Z" fill="#0B105C"/>
</svg>
