<svg width="25" height="20" viewBox="0 0 25 20" fill="none" xmlns="http://www.w3.org/2000/svg">
<path d="M4.85742 1.94043C4.06177 1.94043 3.29871 2.2565 2.7361 2.81911C2.17349 3.38172 1.85742 4.14478 1.85742 4.94043V5.69043H22.8574V4.94043C22.8574 4.14478 22.5414 3.38172 21.9787 2.81911C21.4161 2.2565 20.6531 1.94043 19.8574 1.94043H4.85742Z" fill="#0B105C"/>
<path fill-rule="evenodd" clip-rule="evenodd" d="M22.8574 7.94043H1.85742V15.4404C1.85742 16.2361 2.17349 16.9991 2.7361 17.5618C3.29871 18.1244 4.06177 18.4404 4.85742 18.4404H19.8574C20.6531 18.4404 21.4161 18.1244 21.9787 17.5618C22.5414 16.9991 22.8574 16.2361 22.8574 15.4404V7.94043ZM4.85742 11.6904C4.85742 11.4915 4.93644 11.3008 5.07709 11.1601C5.21774 11.0194 5.40851 10.9404 5.60742 10.9404H11.6074C11.8063 10.9404 11.9971 11.0194 12.1378 11.1601C12.2784 11.3008 12.3574 11.4915 12.3574 11.6904C12.3574 11.8893 12.2784 12.0801 12.1378 12.2208C11.9971 12.3614 11.8063 12.4404 11.6074 12.4404H5.60742C5.40851 12.4404 5.21774 12.3614 5.07709 12.2208C4.93644 12.0801 4.85742 11.8893 4.85742 11.6904ZM5.60742 13.9404C5.40851 13.9404 5.21774 14.0194 5.07709 14.1601C4.93644 14.3008 4.85742 14.4915 4.85742 14.6904C4.85742 14.8893 4.93644 15.0801 5.07709 15.2208C5.21774 15.3614 5.40851 15.4404 5.60742 15.4404H8.60742C8.80633 15.4404 8.9971 15.3614 9.13775 15.2208C9.2784 15.0801 9.35742 14.8893 9.35742 14.6904C9.35742 14.4915 9.2784 14.3008 9.13775 14.1601C8.9971 14.0194 8.80633 13.9404 8.60742 13.9404H5.60742Z" fill="#0B105C"/>
</svg>
