<svg width="25" height="25" viewBox="0 0 25 25" fill="none" xmlns="http://www.w3.org/2000/svg">
<g clip-path="url(#clip0_689_1764)">
<path fill-rule="evenodd" clip-rule="evenodd" d="M8.85752 5.19043C8.85752 3.99696 9.33162 2.85236 10.1755 2.00845C11.0195 1.16454 12.164 0.69043 13.3575 0.69043C14.551 0.69043 15.6956 1.16454 16.5395 2.00845C17.3834 2.85236 17.8575 3.99696 17.8575 5.19043C17.8575 6.3839 17.3834 7.5285 16.5395 8.37241C15.6956 9.21632 14.551 9.69043 13.3575 9.69043C12.164 9.69043 11.0195 9.21632 10.1755 8.37241C9.33162 7.5285 8.85752 6.3839 8.85752 5.19043ZM5.10852 19.2954C5.14224 17.1299 6.02616 15.0645 7.56948 13.545C9.1128 12.0255 11.1917 11.1739 13.3575 11.1739C15.5233 11.1739 17.6022 12.0255 19.1456 13.545C20.6889 15.0645 21.5728 17.1299 21.6065 19.2954C21.6091 19.4412 21.5692 19.5846 21.4916 19.708C21.4139 19.8315 21.302 19.9296 21.1695 19.9904C18.7187 21.1141 16.0537 21.6941 13.3575 21.6904C10.5715 21.6904 7.92452 21.0824 5.54552 19.9904C5.413 19.9296 5.30109 19.8315 5.22348 19.708C5.14587 19.5846 5.10592 19.4412 5.10852 19.2954Z" fill="#0B105C"/>
</g>
<defs>
<clipPath id="clip0_689_1764">
<rect width="24" height="24.4741" fill="white" transform="translate(0.939453 0.083252)"/>
</clipPath>
</defs>
</svg>
