<svg width="25" height="25" viewBox="0 0 25 25" fill="none" xmlns="http://www.w3.org/2000/svg">
<g clip-path="url(#clip0_689_1554)">
<path fill-rule="evenodd" clip-rule="evenodd" d="M2.3584 4.26186C2.3584 3.57987 2.62932 2.92582 3.11155 2.44358C3.59379 1.96135 4.24784 1.69043 4.92983 1.69043H6.10583C6.84297 1.69043 7.48583 2.19272 7.66497 2.90757L8.61211 6.69872C8.68887 7.00557 8.67336 7.32825 8.56755 7.62634C8.46173 7.92442 8.27031 8.18465 8.01726 8.37443L6.90897 9.20586C6.79326 9.29243 6.7684 9.41929 6.80097 9.50757C7.28472 10.8232 8.04862 12.0179 9.03978 13.009C10.0309 14.0002 11.2257 14.7641 12.5413 15.2479C12.6295 15.2804 12.7555 15.2556 12.843 15.1399L13.6744 14.0316C13.8642 13.7785 14.1244 13.5871 14.4225 13.4813C14.7206 13.3755 15.0433 13.36 15.3501 13.4367L19.1413 14.3839C19.8561 14.563 20.3584 15.2059 20.3584 15.9439V17.119C20.3584 17.801 20.0875 18.455 19.6052 18.9373C19.123 19.4195 18.469 19.6904 17.787 19.6904H15.8584C8.40297 19.6904 2.3584 13.6459 2.3584 6.19043V4.26186Z" fill="#0B105C"/>
</g>
<defs>
<clipPath id="clip0_689_1554">
<rect width="24" height="24" fill="white" transform="translate(0.858398 0.19043)"/>
</clipPath>
</defs>
</svg>
