<svg width="25" height="25" viewBox="0 0 25 25" fill="none" xmlns="http://www.w3.org/2000/svg">
<path fill-rule="evenodd" clip-rule="evenodd" d="M4.89292 3.66089C7.26105 3.31329 9.65141 3.13916 12.0449 3.13989C14.4749 3.13989 16.8619 3.31789 19.1969 3.65989C21.1749 3.95189 22.5449 5.68389 22.5449 7.62989V13.6499C22.5449 15.5959 21.1749 17.3279 19.1969 17.6199C18.0432 17.789 16.8838 17.9167 15.7209 18.0029C15.6617 18.0068 15.6042 18.0241 15.5528 18.0536C15.5013 18.083 15.4572 18.1238 15.4239 18.1729L12.6689 22.3059C12.6004 22.4086 12.5076 22.4928 12.3988 22.5511C12.2899 22.6093 12.1684 22.6398 12.0449 22.6398C11.9215 22.6398 11.7999 22.6093 11.6911 22.5511C11.5822 22.4928 11.4894 22.4086 11.4209 22.3059L8.66592 18.1729C8.6326 18.1238 8.58853 18.083 8.53706 18.0536C8.4856 18.0241 8.42809 18.0068 8.36892 18.0029C7.20605 17.9164 6.04664 17.7883 4.89292 17.6189C2.91492 17.3289 1.54492 15.5949 1.54492 13.6489V7.6309C1.54492 5.6849 2.91492 3.95089 4.89292 3.66089ZM6.79492 9.13989C6.79492 8.94098 6.87394 8.75022 7.01459 8.60956C7.15524 8.46891 7.34601 8.38989 7.54492 8.38989H16.5449C16.7438 8.38989 16.9346 8.46891 17.0753 8.60956C17.2159 8.75022 17.2949 8.94098 17.2949 9.13989C17.2949 9.33881 17.2159 9.52957 17.0753 9.67022C16.9346 9.81088 16.7438 9.88989 16.5449 9.88989H7.54492C7.34601 9.88989 7.15524 9.81088 7.01459 9.67022C6.87394 9.52957 6.79492 9.33881 6.79492 9.13989ZM7.54492 11.3899C7.34601 11.3899 7.15524 11.4689 7.01459 11.6096C6.87394 11.7502 6.79492 11.941 6.79492 12.1399C6.79492 12.3388 6.87394 12.5296 7.01459 12.6702C7.15524 12.8109 7.34601 12.8899 7.54492 12.8899H12.0449C12.2438 12.8899 12.4346 12.8109 12.5753 12.6702C12.7159 12.5296 12.7949 12.3388 12.7949 12.1399C12.7949 11.941 12.7159 11.7502 12.5753 11.6096C12.4346 11.4689 12.2438 11.3899 12.0449 11.3899H7.54492Z" fill="#10234E"/>
</svg>
