<svg width="15" height="19" viewBox="0 0 15 19" fill="none" xmlns="http://www.w3.org/2000/svg">
<path fill-rule="evenodd" clip-rule="evenodd" d="M3.8229 4.31417C3.8229 3.29119 4.22928 2.31012 4.95263 1.58676C5.67599 0.863407 6.65707 0.457031 7.68004 0.457031C8.70302 0.457031 9.6841 0.863407 10.4075 1.58676C11.1308 2.31012 11.5372 3.29119 11.5372 4.31417C11.5372 5.33715 11.1308 6.31823 10.4075 7.04158C9.6841 7.76493 8.70302 8.17131 7.68004 8.17131C6.65707 8.17131 5.67599 7.76493 4.95263 7.04158C4.22928 6.31823 3.8229 5.33715 3.8229 4.31417ZM0.609477 16.4042C0.63838 14.548 1.39603 12.7776 2.71887 11.4752C4.04171 10.1728 5.82365 9.44284 7.68004 9.44284C9.53643 9.44284 11.3184 10.1728 12.6412 11.4752C13.9641 12.7776 14.7217 14.548 14.7506 16.4042C14.7528 16.5291 14.7186 16.652 14.6521 16.7578C14.5855 16.8636 14.4896 16.9477 14.376 16.9999C12.2753 17.9631 9.99103 18.4601 7.68004 18.457C5.29205 18.457 3.02319 17.9359 0.984049 16.9999C0.870465 16.9477 0.774542 16.8636 0.708016 16.7578C0.641491 16.652 0.607248 16.5291 0.609477 16.4042Z" fill="#0B105C"/>
</svg>
