<svg width="25" height="22" viewBox="0 0 25 22" fill="none" xmlns="http://www.w3.org/2000/svg">
<path d="M4.35742 2.94043C3.56177 2.94043 2.79871 3.2565 2.2361 3.81911C1.67349 4.38172 1.35742 5.14478 1.35742 5.94043V6.69043H22.3574V5.94043C22.3574 5.14478 22.0414 4.38172 21.4787 3.81911C20.9161 3.2565 20.1531 2.94043 19.3574 2.94043H4.35742Z" fill="#0B105C"/>
<path fill-rule="evenodd" clip-rule="evenodd" d="M22.3574 8.94043H1.35742V16.4404C1.35742 17.2361 1.67349 17.9991 2.2361 18.5618C2.79871 19.1244 3.56177 19.4404 4.35742 19.4404H19.3574C20.1531 19.4404 20.9161 19.1244 21.4787 18.5618C22.0414 17.9991 22.3574 17.2361 22.3574 16.4404V8.94043ZM4.35742 12.6904C4.35742 12.4915 4.43644 12.3008 4.57709 12.1601C4.71774 12.0194 4.90851 11.9404 5.10742 11.9404H11.1074C11.3063 11.9404 11.4971 12.0194 11.6378 12.1601C11.7784 12.3008 11.8574 12.4915 11.8574 12.6904C11.8574 12.8893 11.7784 13.0801 11.6378 13.2208C11.4971 13.3614 11.3063 13.4404 11.1074 13.4404H5.10742C4.90851 13.4404 4.71774 13.3614 4.57709 13.2208C4.43644 13.0801 4.35742 12.8893 4.35742 12.6904ZM5.10742 14.9404C4.90851 14.9404 4.71774 15.0194 4.57709 15.1601C4.43644 15.3008 4.35742 15.4915 4.35742 15.6904C4.35742 15.8893 4.43644 16.0801 4.57709 16.2208C4.71774 16.3614 4.90851 16.4404 5.10742 16.4404H8.10742C8.30633 16.4404 8.4971 16.3614 8.63775 16.2208C8.7784 16.0801 8.85742 15.8893 8.85742 15.6904C8.85742 15.4915 8.7784 15.3008 8.63775 15.1601C8.4971 15.0194 8.30633 14.9404 8.10742 14.9404H5.10742Z" fill="#0B105C"/>
</svg>
