<svg width="10" height="7" viewBox="0 0 10 7" fill="none" xmlns="http://www.w3.org/2000/svg">
<path d="M8.25836 0.343506H1.22836C0.996063 0.344576 0.773676 0.430321 0.609828 0.581992C0.445979 0.733664 0.354 0.938921 0.354003 1.15288L0.349609 6.00913C0.350305 6.22359 0.44311 6.42909 0.607758 6.58074C0.772405 6.73239 0.995514 6.81787 1.22836 6.81851H8.25836C8.49121 6.81787 8.71432 6.73239 8.87896 6.58074C9.04361 6.42909 9.13642 6.22359 9.13711 6.00913V1.15288C9.13642 0.938418 9.04361 0.732923 8.87896 0.581274C8.71432 0.429625 8.49121 0.344146 8.25836 0.343506ZM8.25836 1.96226L4.74336 3.98569L1.22836 1.96226V1.15288L4.74336 3.17632L8.25836 1.15288V1.96226Z" fill="#505050"/>
</svg>
