<svg width="14" height="11" viewBox="0 0 14 11" fill="none" xmlns="http://www.w3.org/2000/svg">
<path d="M6.7642 2.30777C7.55008 2.30532 8.30482 2.60805 8.86267 3.14946C9.42052 3.69088 9.73586 4.42672 9.73944 5.19537C9.73956 5.55779 9.66717 5.91672 9.52634 6.25194L11.2636 7.93729C12.1688 7.20576 12.8708 6.2627 13.3046 5.19537C12.627 3.53969 11.3197 2.20535 9.65727 1.47274C7.99489 0.740136 6.10689 0.666296 4.39001 1.26674L5.67512 2.51621C6.02135 2.37982 6.39095 2.30908 6.7642 2.30777ZM0.81607 0.734134L2.17359 2.05039L2.44792 2.31583C1.4533 3.06135 0.683376 4.05614 0.219727 5.19479C0.914948 6.8887 2.26788 8.24428 3.98247 8.9649C5.69706 9.68552 7.63369 9.71249 9.36857 9.03993L9.61994 9.28291L11.3631 10.9677L12.1195 10.2335L1.56959 0L0.81607 0.734134ZM4.10391 3.9246L5.02639 4.8188C4.99619 4.94138 4.98058 5.06697 4.97988 5.19306C4.98065 5.42136 5.02744 5.64727 5.11756 5.85786C5.20769 6.06845 5.33938 6.25959 5.50511 6.42036C5.67084 6.58112 5.86735 6.70834 6.0834 6.79474C6.29944 6.88114 6.53079 6.92503 6.7642 6.92389C6.8941 6.92338 7.02349 6.90811 7.14979 6.87841L8.07227 7.77319C7.62157 7.99365 7.12079 8.09792 6.61737 8.07612C6.11394 8.05432 5.62455 7.90717 5.19553 7.64861C4.76652 7.39005 4.4121 7.02864 4.16585 6.59862C3.9196 6.1686 3.78967 5.68421 3.78837 5.19134C3.79208 4.75073 3.90009 4.31696 4.10391 3.92402V3.9246ZM6.66765 3.47605L8.54205 5.29555L8.55382 5.204C8.55305 4.97571 8.50626 4.7498 8.41614 4.53921C8.32601 4.32862 8.19432 4.13747 8.02859 3.97671C7.86286 3.81595 7.66635 3.68873 7.4503 3.60233C7.23425 3.51593 7.00291 3.47204 6.7695 3.47317L6.66765 3.47605Z" fill="#505050"/>
</svg>
