<svg width="25" height="24" viewBox="0 0 25 24" fill="none" xmlns="http://www.w3.org/2000/svg">
<g clip-path="url(#clip0_14_1783)">
<path d="M0.0449219 17.4853C0.0449219 13.6263 0.0449219 9.76727 0.0449219 5.90873C0.0580958 5.88144 0.0773861 5.85556 0.083032 5.82686C0.381797 4.28034 1.56651 3.29089 3.13232 3.29042C7.95866 3.28901 12.785 3.28995 17.6114 3.29042C17.6852 3.29042 17.7591 3.29748 17.833 3.30124C17.856 3.33088 17.8786 3.36052 17.9017 3.39063C17.8264 3.43204 17.737 3.45933 17.6786 3.51767C16.3947 4.79601 15.1168 6.08046 13.8319 7.35786C13.4395 7.7479 13.2357 8.20616 13.2452 8.76135C13.2522 9.17491 13.2362 9.58989 13.2555 10.003C13.2974 10.9092 14.0229 11.6356 14.9281 11.6803C15.3022 11.6987 15.6781 11.6756 16.0521 11.6925C16.6958 11.7217 17.2086 11.4836 17.6603 11.0277C19.308 9.36217 20.9698 7.71073 22.6268 6.05458C22.6828 5.99859 22.7421 5.94684 22.8287 5.86638C22.8339 5.97225 22.8386 6.02635 22.8386 6.07999C22.839 9.7348 22.8405 13.3896 22.8353 17.0444C22.8348 17.2999 22.8099 17.562 22.7492 17.809C22.4085 19.1988 21.2116 20.0932 19.7069 20.0947C17.9031 20.0965 16.0987 20.0918 14.2948 20.1012C14.1452 20.1022 13.9711 20.1582 13.8512 20.2471C12.3959 21.325 10.9473 22.4118 9.50001 23.501C9.27652 23.6695 9.04692 23.7513 8.78391 23.6257C8.5082 23.494 8.43763 23.2493 8.43857 22.9637C8.4428 22.0971 8.43998 21.23 8.43998 20.3633C8.43998 20.2805 8.43998 20.1972 8.43998 20.0951C8.31624 20.0951 8.22402 20.0951 8.13134 20.0951C6.46813 20.0951 4.80446 20.0989 3.14126 20.0937C1.93067 20.0899 1.00238 19.571 0.413791 18.5096C0.240648 18.1957 0.165369 17.8278 0.0449219 17.4853ZM11.4422 15.2881C13.7698 15.2881 16.0973 15.2881 18.4253 15.2881C18.5189 15.2881 18.6135 15.2914 18.7062 15.2824C19.0083 15.2533 19.236 15.002 19.2407 14.6995C19.2454 14.3965 19.0238 14.1405 18.7208 14.1052C18.6281 14.0944 18.5335 14.0958 18.4399 14.0958C13.7768 14.0954 9.11373 14.0954 4.45065 14.0958C4.35702 14.0958 4.26245 14.0944 4.16976 14.1048C3.87429 14.1382 3.65786 14.3777 3.65033 14.6727C3.64045 15.0486 3.90581 15.2876 4.34196 15.2881C6.70856 15.2885 9.07515 15.2881 11.4422 15.2881ZM7.26421 6.89301C6.27335 6.89301 5.28248 6.89018 4.29162 6.89442C3.87476 6.89583 3.60281 7.19695 3.65457 7.58322C3.6955 7.8881 3.94345 8.08807 4.30903 8.09418C4.72259 8.10124 5.13616 8.09606 5.54925 8.09606C7.03931 8.09606 8.52938 8.09606 10.0194 8.09606C10.0975 8.09606 10.1761 8.09889 10.2533 8.09183C10.6217 8.05748 10.8499 7.80812 10.8348 7.4609C10.8202 7.13343 10.5694 6.89677 10.2128 6.89536C9.22994 6.89018 8.24708 6.89301 7.26421 6.89301ZM7.23928 10.4961C6.25641 10.4961 5.27354 10.4937 4.29068 10.497C3.8804 10.4984 3.61505 10.7802 3.65268 11.1604C3.68468 11.4865 3.93734 11.6869 4.33443 11.6878C5.49656 11.6907 6.65915 11.6888 7.82128 11.6888C8.60136 11.6888 9.38144 11.7005 10.1611 11.6794C10.3384 11.6747 10.5436 11.5928 10.6814 11.4799C10.871 11.3246 10.8842 11.0814 10.7873 10.8551C10.681 10.6071 10.4796 10.4951 10.2109 10.4951C9.22101 10.4965 8.23014 10.4961 7.23928 10.4961Z" fill="#10234E"/>
<path d="M15.6295 10.4956C15.4578 10.4956 15.286 10.4984 15.1143 10.4951C14.6857 10.4866 14.4471 10.2514 14.4401 9.82605C14.4354 9.52164 14.4523 9.21676 14.4354 8.91282C14.418 8.59288 14.5276 8.35151 14.7567 8.12426C16.579 6.31474 18.3918 4.49627 20.2079 2.68016C20.7156 2.17249 21.2228 1.66388 21.7314 1.15716C22.0852 0.804758 22.3924 0.800053 22.7415 1.1454C23.0967 1.49639 23.4506 1.84973 23.8011 2.20542C24.1257 2.53477 24.1267 2.85424 23.7983 3.18264C21.4425 5.54077 19.0848 7.89654 16.7295 10.2551C16.5644 10.4203 16.3767 10.5031 16.1442 10.497C15.973 10.4918 15.8012 10.4956 15.6295 10.4956Z" fill="#10234E"/>
</g>
<defs>
<clipPath id="clip0_14_1783">
<rect width="24" height="22.796" fill="white" transform="translate(0.0449219 0.889893)"/>
</clipPath>
</defs>
</svg>
