<svg width="25" height="24" viewBox="0 0 25 24" fill="none" xmlns="http://www.w3.org/2000/svg">
<path d="M3.52148 15.1909C3.75971 14.7591 3.97133 14.3093 4.28369 13.9237C4.88497 13.1809 5.59522 12.6116 6.56715 12.4612C6.96504 12.3995 7.36103 12.4426 7.73739 12.5537C8.71121 12.8416 9.70278 12.884 10.7089 12.8879C11.6948 12.8917 12.6819 12.9187 13.6684 12.9238C13.9554 12.9251 14.1835 13.0543 14.3489 13.2933C14.743 13.8633 14.6815 14.6222 14.2082 15.0951C14.0391 15.2648 13.8395 15.3258 13.6076 15.3252C12.4145 15.3226 11.2215 15.3297 10.0284 15.3188C9.81556 15.3168 9.74523 15.3785 9.76867 15.5886C9.79402 15.8097 9.6787 16.0931 9.81366 16.2389C9.95115 16.388 10.2331 16.2852 10.451 16.2865C11.5332 16.2923 12.616 16.2871 13.6982 16.2897C14.0416 16.2903 14.354 16.192 14.6334 15.9992C15.3652 15.4948 16.1489 15.0804 16.9073 14.6216C17.7202 14.1293 18.5432 13.6551 19.3612 13.1712C20.0544 12.7613 20.7976 12.5312 21.6009 12.4811C22.2048 12.4438 22.7896 12.5158 23.3718 12.6745C23.7051 12.7651 23.9661 12.9181 24.0929 13.258C24.0929 13.3704 24.0929 13.4823 24.0929 13.5947C23.9218 14.0644 23.4694 14.2109 23.1076 14.4448C21.3051 15.6105 19.4905 16.7575 17.6803 17.9109C16.1039 18.9153 14.5263 19.9184 12.9512 20.9253C12.8428 20.9947 12.7313 21.0005 12.6116 21.0005C10.5417 21.0011 8.47108 21.003 6.40115 21.0043C6.35553 20.9214 6.30611 20.8405 6.26366 20.7556C5.34939 18.9005 4.43575 17.0454 3.52148 15.1909Z" fill="#10234E"/>
<path d="M3.89633 15.3462C4.83594 17.185 5.77555 19.0239 6.71517 20.8621C6.75814 20.9462 6.80893 21.0264 6.85647 21.1086C7.06223 21.729 6.93786 22.0436 6.34857 22.3621C5.68244 22.7226 5.0137 23.0799 4.34302 23.4321C3.79735 23.7188 3.32201 23.5729 3.04657 23.0334C2.1037 21.1914 1.16279 19.3481 0.223825 17.5041C-0.0437983 16.9787 0.0981529 16.5481 0.624936 16.2659C1.29302 15.908 1.96045 15.5494 2.62983 15.1946C3.17615 14.9048 3.44833 14.9398 3.89633 15.3462Z" fill="#10234E"/>
<path d="M8.81934 0.290039C8.32336 0.290039 7.84768 0.48707 7.49697 0.837786C7.14625 1.1885 6.94922 1.66418 6.94922 2.16016V2.62769H20.0401V2.16016C20.0401 1.66418 19.8431 1.1885 19.4923 0.837786C19.1416 0.48707 18.666 0.290039 18.17 0.290039H8.81934Z" fill="#10234E"/>
<path fill-rule="evenodd" clip-rule="evenodd" d="M20.0401 4.02975H6.94922V8.70506C6.94922 9.20105 7.14625 9.67673 7.49697 10.0274C7.84768 10.3782 8.32336 10.5752 8.81934 10.5752H18.17C18.666 10.5752 19.1416 10.3782 19.4923 10.0274C19.8431 9.67673 20.0401 9.20105 20.0401 8.70506V4.02975ZM8.81934 6.36741C8.81934 6.24341 8.8686 6.12449 8.95628 6.03682C9.04396 5.94914 9.16288 5.89988 9.28687 5.89988H13.0271C13.1511 5.89988 13.27 5.94914 13.3577 6.03682C13.4454 6.12449 13.4947 6.24341 13.4947 6.36741C13.4947 6.49141 13.4454 6.61032 13.3577 6.698C13.27 6.78568 13.1511 6.83494 13.0271 6.83494H9.28687C9.16288 6.83494 9.04396 6.78568 8.95628 6.698C8.8686 6.61032 8.81934 6.49141 8.81934 6.36741ZM9.28687 7.77C9.16288 7.77 9.04396 7.81926 8.95628 7.90694C8.8686 7.99462 8.81934 8.11354 8.81934 8.23753C8.81934 8.36153 8.8686 8.48045 8.95628 8.56813C9.04396 8.65581 9.16288 8.70506 9.28687 8.70506H11.157C11.281 8.70506 11.3999 8.65581 11.4876 8.56813C11.5753 8.48045 11.6245 8.36153 11.6245 8.23753C11.6245 8.11354 11.5753 7.99462 11.4876 7.90694C11.3999 7.81926 11.281 7.77 11.157 7.77H9.28687Z" fill="#10234E"/>
</svg>
