<svg width="60" height="59" viewBox="0 0 60 59" fill="none" xmlns="http://www.w3.org/2000/svg">
<g filter="url(#filter0_d_819_1672)">
<rect x="10.7344" y="10.9951" width="38.9358" height="37.7733" rx="6" fill="white"/>
</g>
<path d="M39.4656 20.261C38.9734 19.7694 38.3057 19.4932 37.6096 19.4932C36.9135 19.4932 36.2459 19.7694 35.7536 20.261L34.5966 21.4168L38.3086 25.1248L39.4656 23.9691C39.9578 23.4773 40.2343 22.8104 40.2343 22.115C40.2343 21.4197 39.9578 20.7528 39.4656 20.261ZM37.2476 26.1847L33.5356 22.4767L25.1356 30.8676C24.5185 31.4838 24.0648 32.2439 23.8156 33.0793L23.0156 35.7614C22.977 35.8908 22.9741 36.0283 23.0073 36.1592C23.0405 36.2901 23.1084 36.4097 23.204 36.5052C23.2996 36.6007 23.4193 36.6686 23.5504 36.7017C23.6815 36.7349 23.8191 36.732 23.9486 36.6934L26.6336 35.8943C27.4699 35.6453 28.2308 35.1922 28.8476 34.5757L37.2476 26.1847Z" fill="#4498E2"/>
<path d="M22.9844 23.2393C22.1887 23.2393 21.4257 23.555 20.8631 24.117C20.3004 24.679 19.9844 25.4412 19.9844 26.236V36.7248C19.9844 37.5196 20.3004 38.2818 20.8631 38.8438C21.4257 39.4058 22.1887 39.7216 22.9844 39.7216H33.4844C34.28 39.7216 35.0431 39.4058 35.6057 38.8438C36.1683 38.2818 36.4844 37.5196 36.4844 36.7248V31.4804C36.4844 31.2817 36.4054 31.0912 36.2647 30.9507C36.1241 30.8102 35.9333 30.7312 35.7344 30.7312C35.5355 30.7312 35.3447 30.8102 35.204 30.9507C35.0634 31.0912 34.9844 31.2817 34.9844 31.4804V36.7248C34.9844 37.1222 34.8263 37.5033 34.545 37.7843C34.2637 38.0653 33.8822 38.2232 33.4844 38.2232H22.9844C22.5866 38.2232 22.205 38.0653 21.9237 37.7843C21.6424 37.5033 21.4844 37.1222 21.4844 36.7248V26.236C21.4844 25.8386 21.6424 25.4575 21.9237 25.1765C22.205 24.8955 22.5866 24.7377 22.9844 24.7377H28.2344C28.4333 24.7377 28.6241 24.6587 28.7647 24.5182C28.9054 24.3777 28.9844 24.1872 28.9844 23.9885C28.9844 23.7898 28.9054 23.5992 28.7647 23.4587C28.6241 23.3182 28.4333 23.2393 28.2344 23.2393H22.9844Z" fill="#4498E2"/>
<defs>
<filter id="filter0_d_819_1672" x="0.734375" y="0.995117" width="58.9358" height="57.7734" filterUnits="userSpaceOnUse" color-interpolation-filters="sRGB">
<feFlood flood-opacity="0" result="BackgroundImageFix"/>
<feColorMatrix in="SourceAlpha" type="matrix" values="0 0 0 0 0 0 0 0 0 0 0 0 0 0 0 0 0 0 127 0" result="hardAlpha"/>
<feOffset/>
<feGaussianBlur stdDeviation="5"/>
<feComposite in2="hardAlpha" operator="out"/>
<feColorMatrix type="matrix" values="0 0 0 0 0 0 0 0 0 0 0 0 0 0 0 0 0 0 0.1 0"/>
<feBlend mode="normal" in2="BackgroundImageFix" result="effect1_dropShadow_819_1672"/>
<feBlend mode="normal" in="SourceGraphic" in2="effect1_dropShadow_819_1672" result="shape"/>
</filter>
</defs>
</svg>
