<svg width="22" height="20" viewBox="0 0 22 20" fill="none" xmlns="http://www.w3.org/2000/svg">
<path d="M10.5062 1.72976C10.6468 1.58931 10.8375 1.51042 11.0362 1.51042C11.235 1.51042 11.4256 1.58931 11.5662 1.72976L20.2562 10.4198C20.3249 10.4934 20.4077 10.5526 20.4997 10.5935C20.5917 10.6345 20.691 10.6566 20.7917 10.6584C20.8924 10.6601 20.9924 10.6416 21.0858 10.6039C21.1792 10.5662 21.264 10.51 21.3353 10.4388C21.4065 10.3676 21.4626 10.2827 21.5003 10.1894C21.5381 10.096 21.5566 9.99594 21.5548 9.89524C21.553 9.79454 21.531 9.69522 21.49 9.60322C21.449 9.51122 21.3899 9.42842 21.3162 9.35976L12.6272 0.669762C12.4183 0.460827 12.1702 0.295091 11.8973 0.182016C11.6243 0.0689411 11.3317 0.0107422 11.0362 0.0107422C10.7407 0.0107422 10.4482 0.0689411 10.1752 0.182016C9.90219 0.295091 9.65415 0.460827 9.44521 0.669762L0.755214 9.35976C0.61866 9.50128 0.543152 9.69077 0.544953 9.88741C0.546754 10.0841 0.62572 10.2721 0.764842 10.4111C0.903964 10.5501 1.09211 10.6289 1.28876 10.6305C1.48541 10.6321 1.67483 10.5564 1.81621 10.4198L10.5062 1.72976Z" fill="#10234E"/>
<path d="M11.0371 3.32182L19.1961 11.4808C19.2261 11.5108 19.2561 11.5388 19.2871 11.5668V17.7648C19.2871 18.7998 18.4471 19.6398 17.4121 19.6398H14.0371C13.8382 19.6398 13.6474 19.5608 13.5068 19.4202C13.3661 19.2795 13.2871 19.0887 13.2871 18.8898V14.3898C13.2871 14.1909 13.2081 14.0001 13.0674 13.8595C12.9268 13.7188 12.736 13.6398 12.5371 13.6398H9.53711C9.3382 13.6398 9.14743 13.7188 9.00678 13.8595C8.86613 14.0001 8.78711 14.1909 8.78711 14.3898V18.8898C8.78711 19.0887 8.70809 19.2795 8.56744 19.4202C8.42679 19.5608 8.23602 19.6398 8.03711 19.6398H4.66211C4.16483 19.6398 3.68791 19.4423 3.33628 19.0906C2.98465 18.739 2.78711 18.2621 2.78711 17.7648V11.5668C2.81822 11.539 2.84857 11.5103 2.87811 11.4808L11.0371 3.31982V3.32182Z" fill="#10234E"/>
</svg>
