<svg width="17" height="22" viewBox="0 0 17 22" fill="none" xmlns="http://www.w3.org/2000/svg">
<path fill-rule="evenodd" clip-rule="evenodd" d="M7.96578 21.0505L8.03578 21.0905L8.06378 21.1065C8.17481 21.1665 8.29905 21.1979 8.42528 21.1979C8.55151 21.1979 8.67575 21.1665 8.78678 21.1065L8.81478 21.0915L8.88578 21.0505C9.2769 20.8186 9.65854 20.571 10.0298 20.3085C10.9909 19.6299 11.8888 18.8662 12.7128 18.0265C14.6568 16.0365 16.6758 13.0465 16.6758 9.19946C16.6758 7.01143 15.8066 4.91301 14.2594 3.36583C12.7122 1.81866 10.6138 0.949463 8.42578 0.949463C6.23775 0.949463 4.13933 1.81866 2.59215 3.36583C1.04498 4.91301 0.175781 7.01143 0.175781 9.19946C0.175781 13.0455 2.19578 16.0365 4.13878 18.0265C4.96242 18.8661 5.86005 19.6299 6.82078 20.3085C7.19235 20.571 7.57432 20.8186 7.96578 21.0505ZM8.42578 12.1995C9.22143 12.1995 9.98449 11.8834 10.5471 11.3208C11.1097 10.7582 11.4258 9.99511 11.4258 9.19946C11.4258 8.40381 11.1097 7.64075 10.5471 7.07814C9.98449 6.51553 9.22143 6.19946 8.42578 6.19946C7.63013 6.19946 6.86707 6.51553 6.30446 7.07814C5.74185 7.64075 5.42578 8.40381 5.42578 9.19946C5.42578 9.99511 5.74185 10.7582 6.30446 11.3208C6.86707 11.8834 7.63013 12.1995 8.42578 12.1995Z" fill="#0B105C"/>
</svg>
