<svg width="9" height="10" viewBox="0 0 9 10" fill="none" xmlns="http://www.w3.org/2000/svg">
<path fill-rule="evenodd" clip-rule="evenodd" d="M4.44858 9.74947L4.48095 9.76797L4.4939 9.77537C4.54526 9.80314 4.60272 9.81768 4.6611 9.81768C4.71948 9.81768 4.77694 9.80314 4.82829 9.77537L4.84124 9.76843L4.87408 9.74947C5.05497 9.64221 5.23148 9.52773 5.40318 9.4063C5.84767 9.09248 6.26298 8.73924 6.64407 8.35087C7.54317 7.4305 8.47695 6.04762 8.47695 4.26838C8.47695 3.25642 8.07495 2.2859 7.35938 1.57033C6.64381 0.854761 5.6733 0.452759 4.66133 0.452759C3.64936 0.452759 2.67884 0.854761 1.96327 1.57033C1.24771 2.2859 0.845703 3.25642 0.845703 4.26838C0.845703 6.04716 1.77995 7.4305 2.67859 8.35087C3.05953 8.73922 3.47468 9.09246 3.91902 9.4063C4.09087 9.52774 4.26753 9.64222 4.44858 9.74947ZM4.66133 5.65588C5.02932 5.65588 5.38223 5.5097 5.64244 5.24949C5.90265 4.98929 6.04883 4.63637 6.04883 4.26838C6.04883 3.9004 5.90265 3.54748 5.64244 3.28727C5.38223 3.02707 5.02932 2.88088 4.66133 2.88088C4.29334 2.88088 3.94042 3.02707 3.68022 3.28727C3.42001 3.54748 3.27383 3.9004 3.27383 4.26838C3.27383 4.63637 3.42001 4.98929 3.68022 5.24949C3.94042 5.5097 4.29334 5.65588 4.66133 5.65588Z" fill="#505050"/>
</svg>
