<svg width="8" height="10" viewBox="0 0 8 10" fill="none" xmlns="http://www.w3.org/2000/svg">
<path d="M6.8697 3.38652H6.28099V2.28297C6.28297 1.98508 6.22402 1.68973 6.10748 1.41379C5.99095 1.13785 5.81913 0.886716 5.60182 0.674727C5.38451 0.462738 5.12598 0.294047 4.84098 0.178286C4.55597 0.0625237 4.25009 0.00195805 3.94079 4.66978e-05C3.63148 -0.00186466 3.32482 0.0549157 3.0383 0.167146C2.75178 0.279376 2.49102 0.444858 2.2709 0.654143C2.05079 0.863429 1.87563 1.11242 1.75543 1.3869C1.63523 1.66138 1.57234 1.95597 1.57036 2.25386V3.38826H0.981193C0.721532 3.38905 0.472716 3.48863 0.288938 3.6653C0.10516 3.84197 0.0013077 4.08141 0 4.33149V8.86822C0.000713747 9.11867 0.104304 9.35867 0.288146 9.53581C0.471988 9.71294 0.721143 9.81282 0.981193 9.81362H6.8697C7.12968 9.81282 7.37876 9.713 7.56259 9.53596C7.74642 9.35892 7.85006 9.11903 7.8509 8.86865V4.33149C7.85006 4.08111 7.74642 3.84122 7.56259 3.66418C7.37876 3.48714 7.12968 3.38732 6.8697 3.38652ZM4.26898 6.33526V7.96104C4.26956 8.04702 4.23619 8.12999 4.17563 8.19315C4.11507 8.25632 4.03185 8.29495 3.94282 8.30123C3.89629 8.30347 3.84978 8.29658 3.8061 8.28097C3.76243 8.26537 3.7225 8.24137 3.68875 8.21045C3.655 8.17953 3.62812 8.14232 3.60976 8.10109C3.59139 8.05986 3.58192 8.01547 3.58192 7.9706V6.33526C3.42228 6.26043 3.2937 6.13568 3.21716 5.9814C3.14063 5.82711 3.12067 5.65239 3.16054 5.48577C3.20041 5.31914 3.29775 5.17046 3.43668 5.06399C3.5756 4.95752 3.7479 4.89955 3.92545 4.89955C4.10299 4.89955 4.27529 4.95752 4.41422 5.06399C4.55314 5.17046 4.65049 5.31914 4.69036 5.48577C4.73022 5.65239 4.71026 5.82711 4.63373 5.9814C4.5572 6.13568 4.42862 6.26043 4.26898 6.33526ZM5.59393 3.38652H2.25562V2.25386C2.25562 1.82751 2.43147 1.41863 2.7445 1.11716C3.05753 0.815685 3.48208 0.64632 3.92477 0.64632C4.36746 0.64632 4.79202 0.815685 5.10504 1.11716C5.41807 1.41863 5.59393 1.82751 5.59393 2.25386V3.38652Z" fill="#505050"/>
</svg>
