<svg width="25" height="25" viewBox="0 0 25 25" fill="none" xmlns="http://www.w3.org/2000/svg">
<path d="M4.54492 4.63989C3.74927 4.63989 2.98621 4.95596 2.4236 5.51857C1.86099 6.08118 1.54492 6.84424 1.54492 7.63989V8.38989H22.5449V7.63989C22.5449 6.84424 22.2289 6.08118 21.6662 5.51857C21.1036 4.95596 20.3406 4.63989 19.5449 4.63989H4.54492Z" fill="#10234E"/>
<path fill-rule="evenodd" clip-rule="evenodd" d="M1.54492 10.6399H22.5449V15.615C21.5422 14.5528 20.121 13.8899 18.5449 13.8899C15.5074 13.8899 13.0449 16.3523 13.0449 19.3899C13.0449 20.0017 13.1448 20.5902 13.3292 21.1399H4.54492C3.74927 21.1399 2.98621 20.8238 2.4236 20.2612C1.86099 19.6986 1.54492 18.9355 1.54492 18.1399V10.6399ZM4.76459 13.8596C4.62394 14.0002 4.54492 14.191 4.54492 14.3899C4.54492 14.5888 4.62394 14.7796 4.76459 14.9202C4.90524 15.0609 5.09601 15.1399 5.29492 15.1399H11.2949C11.4938 15.1399 11.6846 15.0609 11.8253 14.9202C11.9659 14.7796 12.0449 14.5888 12.0449 14.3899C12.0449 14.191 11.9659 14.0002 11.8253 13.8596C11.6846 13.7189 11.4938 13.6399 11.2949 13.6399H5.29492C5.09601 13.6399 4.90524 13.7189 4.76459 13.8596ZM4.76459 16.8596C4.90524 16.7189 5.09601 16.6399 5.29492 16.6399H8.29492C8.49383 16.6399 8.6846 16.7189 8.82525 16.8596C8.9659 17.0002 9.04492 17.191 9.04492 17.3899C9.04492 17.5888 8.9659 17.7796 8.82525 17.9202C8.6846 18.0609 8.49383 18.1399 8.29492 18.1399H5.29492C5.09601 18.1399 4.90524 18.0609 4.76459 17.9202C4.62394 17.7796 4.54492 17.5888 4.54492 17.3899C4.54492 17.191 4.62394 17.0002 4.76459 16.8596Z" fill="#10234E"/>
<path fill-rule="evenodd" clip-rule="evenodd" d="M18.5449 23.8899C21.0302 23.8899 23.0449 21.8752 23.0449 19.3899C23.0449 16.9046 21.0302 14.8899 18.5449 14.8899C16.0596 14.8899 14.0449 16.9046 14.0449 19.3899C14.0449 21.8752 16.0596 23.8899 18.5449 23.8899ZM19.0277 18.1181C18.8914 18.2775 18.7545 18.4376 18.6154 18.5972C18.5076 18.482 18.4387 18.4147 18.3697 18.3475L17.3096 17.1663C17.1243 16.9646 16.9131 16.8446 16.6459 16.907C16.0727 17.0414 15.8529 17.7665 16.2623 18.2467C16.5533 18.5876 16.8609 18.9145 17.1722 19.2453C17.3082 19.3898 17.4448 19.535 17.5811 19.6824C17.5337 19.7374 17.4954 19.7832 17.4616 19.8237C17.4215 19.8718 17.3877 19.9123 17.3527 19.9513L16.2925 21.1326C16.1115 21.3391 16.0038 21.5743 16.0598 21.8721C16.1805 22.5155 16.8312 22.7556 17.2622 22.2994C17.5714 21.9716 17.866 21.6274 18.1635 21.2799C18.293 21.1286 18.423 20.9767 18.555 20.8253C18.5632 20.8333 18.5712 20.8411 18.5789 20.8487C18.6732 20.9411 18.737 21.0036 18.8007 21.0702C18.9499 21.2249 19.0977 21.3812 19.2452 21.5372C19.4685 21.7732 19.6911 22.0086 19.9169 22.237C20.2185 22.5395 20.6323 22.5155 20.9081 22.2034C21.1796 21.8961 21.1968 21.4543 20.9253 21.1278C20.745 20.9096 20.5513 20.7088 20.357 20.5076C20.2819 20.4298 20.2068 20.352 20.1323 20.2731C19.96 20.0858 19.7876 19.8985 19.598 19.692C19.8215 19.4454 20.0393 19.2066 20.2543 18.9708C20.4537 18.752 20.6507 18.5359 20.8477 18.3187C21.0417 18.1074 21.1623 17.8625 21.1063 17.5552C20.99 16.9166 20.3306 16.6669 19.9039 17.1231C19.6049 17.4432 19.3178 17.7789 19.0277 18.1181Z" fill="#10234E"/>
</svg>
