<svg width="20" height="15" viewBox="0 0 20 15" fill="none" xmlns="http://www.w3.org/2000/svg">
<path d="M17.3656 0.226807H2.16563C1.66336 0.22912 1.18253 0.414515 0.828259 0.742453C0.473992 1.07039 0.275119 1.51419 0.275125 1.97681L0.265625 12.4768C0.267129 12.9405 0.467789 13.3848 0.823783 13.7127C1.17978 14.0406 1.66218 14.2254 2.16563 14.2268H17.3656C17.8691 14.2254 18.3515 14.0406 18.7075 13.7127C19.0635 13.3848 19.2641 12.9405 19.2656 12.4768V1.97681C19.2641 1.5131 19.0635 1.06879 18.7075 0.7409C18.3515 0.413011 17.8691 0.228192 17.3656 0.226807ZM17.3656 3.72681L9.76563 8.10181L2.16563 3.72681V1.97681L9.76563 6.35181L17.3656 1.97681V3.72681Z" fill="#0B105C"/>
</svg>
