<svg width="25" height="25" viewBox="0 0 25 25" fill="none" xmlns="http://www.w3.org/2000/svg">
<path d="M4.54492 4.63989C3.74927 4.63989 2.98621 4.95596 2.4236 5.51857C1.86099 6.08118 1.54492 6.84424 1.54492 7.63989V8.38989H22.5449V7.63989C22.5449 6.84424 22.2289 6.08118 21.6662 5.51857C21.1036 4.95596 20.3406 4.63989 19.5449 4.63989H4.54492Z" fill="#10234E"/>
<path fill-rule="evenodd" clip-rule="evenodd" d="M22.5449 10.6399H1.54492V18.1399C1.54492 18.9355 1.86099 19.6986 2.4236 20.2612C2.98621 20.8238 3.74927 21.1399 4.54492 21.1399H19.5449C20.3406 21.1399 21.1036 20.8238 21.6662 20.2612C22.2289 19.6986 22.5449 18.9355 22.5449 18.1399V10.6399ZM4.54492 14.3899C4.54492 14.191 4.62394 14.0002 4.76459 13.8596C4.90524 13.7189 5.09601 13.6399 5.29492 13.6399H11.2949C11.4938 13.6399 11.6846 13.7189 11.8253 13.8596C11.9659 14.0002 12.0449 14.191 12.0449 14.3899C12.0449 14.5888 11.9659 14.7796 11.8253 14.9202C11.6846 15.0609 11.4938 15.1399 11.2949 15.1399H5.29492C5.09601 15.1399 4.90524 15.0609 4.76459 14.9202C4.62394 14.7796 4.54492 14.5888 4.54492 14.3899ZM5.29492 16.6399C5.09601 16.6399 4.90524 16.7189 4.76459 16.8596C4.62394 17.0002 4.54492 17.191 4.54492 17.3899C4.54492 17.5888 4.62394 17.7796 4.76459 17.9202C4.90524 18.0609 5.09601 18.1399 5.29492 18.1399H8.29492C8.49383 18.1399 8.6846 18.0609 8.82525 17.9202C8.9659 17.7796 9.04492 17.5888 9.04492 17.3899C9.04492 17.191 8.9659 17.0002 8.82525 16.8596C8.6846 16.7189 8.49383 16.6399 8.29492 16.6399H5.29492Z" fill="#10234E"/>
</svg>
