<svg width="25" height="25" viewBox="0 0 25 25" fill="none" xmlns="http://www.w3.org/2000/svg">
<path fill-rule="evenodd" clip-rule="evenodd" d="M7.54404 6.88989C7.54404 5.69642 8.01815 4.55183 8.86206 3.70791C9.70597 2.864 10.8506 2.38989 12.044 2.38989C13.2375 2.38989 14.3821 2.864 15.226 3.70791C16.0699 4.55183 16.544 5.69642 16.544 6.88989C16.544 8.08337 16.0699 9.22796 15.226 10.0719C14.3821 10.9158 13.2375 11.3899 12.044 11.3899C10.8506 11.3899 9.70597 10.9158 8.86206 10.0719C8.01815 9.22796 7.54404 8.08337 7.54404 6.88989ZM3.79504 20.9949C3.82876 18.8294 4.71268 16.7639 6.256 15.2445C7.79932 13.725 9.87825 12.8733 12.044 12.8733C14.2098 12.8733 16.2888 13.725 17.8321 15.2445C19.3754 16.7639 20.2593 18.8294 20.293 20.9949C20.2956 21.1407 20.2557 21.2841 20.1781 21.4075C20.1005 21.5309 19.9886 21.6291 19.856 21.6899C17.4052 22.8136 14.7402 23.3935 12.044 23.3899C9.25804 23.3899 6.61104 22.7819 4.23204 21.6899C4.09953 21.6291 3.98762 21.5309 3.91 21.4075C3.83239 21.2841 3.79244 21.1407 3.79504 20.9949Z" fill="#10234E"/>
</svg>
