<svg width="12" height="12" viewBox="0 0 12 12" fill="none" xmlns="http://www.w3.org/2000/svg">
<path fill-rule="evenodd" clip-rule="evenodd" d="M4.07024 2.80907C4.07024 2.33595 4.25819 1.8822 4.59274 1.54765C4.92729 1.2131 5.38104 1.02515 5.85417 1.02515C6.3273 1.02515 6.78104 1.2131 7.11559 1.54765C7.45015 1.8822 7.6381 2.33595 7.6381 2.80907C7.6381 3.2822 7.45015 3.73595 7.11559 4.0705C6.78104 4.40505 6.3273 4.593 5.85417 4.593C5.38104 4.593 4.92729 4.40505 4.59274 4.0705C4.25819 3.73595 4.07024 3.2822 4.07024 2.80907ZM2.58403 8.40069C2.5974 7.54222 2.94781 6.72343 3.55963 6.12106C4.17144 5.5187 4.99559 5.18108 5.85417 5.18108C6.71275 5.18108 7.5369 5.5187 8.14871 6.12106C8.76053 6.72343 9.11094 7.54222 9.1243 8.40069C9.12534 8.45849 9.1095 8.51533 9.07873 8.56426C9.04796 8.61319 9.0036 8.6521 8.95107 8.67621C7.97949 9.12168 6.923 9.35159 5.85417 9.35014C4.74972 9.35014 3.70037 9.10911 2.75727 8.67621C2.70474 8.6521 2.66037 8.61319 2.62961 8.56426C2.59884 8.51533 2.583 8.45849 2.58403 8.40069Z" fill="#505050"/>
</svg>
