<svg width="12" height="12" viewBox="0 0 12 12" fill="none" xmlns="http://www.w3.org/2000/svg">
<g clip-path="url(#clip0_13_2127)">
<path fill-rule="evenodd" clip-rule="evenodd" d="M0.929688 1.94722C0.929688 1.6318 1.05499 1.3293 1.27802 1.10627C1.50106 0.883234 1.80356 0.757935 2.11897 0.757935H2.66287C3.0038 0.757935 3.30112 0.990242 3.38398 1.32086L3.82203 3.07427C3.85753 3.21619 3.85036 3.36543 3.80142 3.50329C3.75248 3.64115 3.66395 3.76151 3.54691 3.84928L3.03433 4.23382C2.98081 4.27386 2.96931 4.33253 2.98438 4.37336C3.20811 4.98182 3.56142 5.53439 4.01983 5.99279C4.47824 6.45121 5.0308 6.80451 5.63926 7.02824C5.68009 7.04331 5.73837 7.03181 5.7788 6.97829L6.16334 6.46571C6.25111 6.34868 6.37147 6.26014 6.50933 6.2112C6.64719 6.16226 6.79643 6.15509 6.93835 6.19059L8.69176 6.62864C9.02238 6.7115 9.25469 7.00882 9.25469 7.35014V7.89365C9.25469 8.20907 9.12939 8.51157 8.90635 8.7346C8.68332 8.95763 8.38082 9.08293 8.0654 9.08293H7.17344C3.7253 9.08293 0.929688 6.28732 0.929688 2.83918V1.94722Z" fill="#505050"/>
</g>
<defs>
<clipPath id="clip0_13_2127">
<rect width="11.1" height="11.1" fill="white" transform="translate(0.236328 0.064209)"/>
</clipPath>
</defs>
</svg>
