<svg width="25" height="23" viewBox="0 0 25 23" fill="none" xmlns="http://www.w3.org/2000/svg">
<g clip-path="url(#clip0_14_1753)">
<path d="M7.06771 18.0306C9.25893 20.6797 13.5493 22.0339 17.4585 20.1644C21.3938 18.2822 23.3734 13.7008 22.0318 9.5727C20.6355 5.27635 16.3859 2.88489 12.3639 3.547C12.4139 3.8033 12.5287 4.06627 12.5014 4.31456C12.446 4.81514 11.9067 5.11282 11.4481 4.90592C10.7894 4.60824 10.1446 4.27785 9.50388 3.94413C9.22956 3.80129 9.12878 3.49294 9.2616 3.21194C9.57129 2.55851 9.889 1.90842 10.2281 1.26967C10.4089 0.929277 10.8294 0.80847 11.1845 0.945963C11.5489 1.08679 11.7558 1.46457 11.6811 1.85169C11.6717 1.90041 11.6584 1.9478 11.6417 2.01922C12.0462 1.97249 12.436 1.9171 12.8284 1.88439C17.9564 1.45856 22.6646 4.92928 23.7912 9.96315C25.058 15.6211 21.4532 21.297 15.7532 22.399C11.4014 23.2406 7.84728 21.7676 5.16348 18.2328C5.04868 18.0813 4.94189 18.0266 4.75701 18.0259C4.00814 18.0232 3.25392 18.0573 2.51239 17.9778C1.17016 17.8337 0.0835566 16.6443 0.0668705 15.298C0.0388378 13.1168 0.036168 10.9343 0.0675379 8.75374C0.0888962 7.2947 1.35571 6.05259 2.81408 6.04525C6.35354 6.02723 9.893 6.02723 13.4325 6.04458C14.9335 6.05192 16.1843 7.31006 16.199 8.81047C16.2197 10.9503 16.219 13.0908 16.1997 15.2306C16.1857 16.7824 14.9035 18.0192 13.325 18.0279C11.3347 18.0386 9.34436 18.0306 7.35337 18.0306C7.2666 18.0306 7.17917 18.0306 7.06771 18.0306ZM1.65873 9.5747C5.98578 9.5747 10.2868 9.5747 14.6072 9.5747C14.6072 9.36045 14.6092 9.16222 14.6065 8.96332C14.5972 8.16305 14.0719 7.64044 13.2689 7.6351C12.6863 7.6311 12.1029 7.63443 11.5202 7.63443C8.68025 7.63443 5.84027 7.6331 3.00029 7.63577C2.27278 7.63644 1.72013 8.10832 1.66273 8.78377C1.64071 9.03874 1.65873 9.29771 1.65873 9.5747ZM10.6819 14.7027C11.1818 14.7027 11.6818 14.7127 12.181 14.6967C12.3492 14.6913 12.5321 14.6513 12.6776 14.5712C12.9806 14.4043 13.1134 14.0326 13.0247 13.7089C12.9245 13.3411 12.6249 13.1088 12.2057 13.1062C11.1979 13.0995 10.19 13.0988 9.18217 13.1062C8.67158 13.1095 8.31917 13.4552 8.32651 13.9184C8.33385 14.375 8.68025 14.6967 9.18217 14.7013C9.68209 14.7067 10.182 14.7027 10.6819 14.7027Z" fill="#10234E"/>
</g>
<defs>
<clipPath id="clip0_14_1753">
<rect width="24" height="21.7394" fill="white" transform="translate(0.0449219 0.889893)"/>
</clipPath>
</defs>
</svg>
