<svg width="25" height="25" viewBox="0 0 25 25" fill="none" xmlns="http://www.w3.org/2000/svg">
<path fill-rule="evenodd" clip-rule="evenodd" d="M11.1238 3.13989C10.2068 3.13989 9.42483 3.80289 9.27383 4.70689L9.09583 5.77889C9.07583 5.89889 8.98083 6.03889 8.79883 6.12689C8.45618 6.2916 8.12656 6.48215 7.81283 6.69689C7.64683 6.81189 7.47883 6.82289 7.36283 6.77989L6.34583 6.39789C5.93007 6.24213 5.47253 6.23895 5.05465 6.38893C4.63677 6.53891 4.28566 6.8323 4.06383 7.21689L3.14183 8.81389C2.91992 9.19825 2.84155 9.64887 2.92065 10.0856C2.99975 10.5223 3.2312 10.9168 3.57383 11.1989L4.41383 11.8909C4.50883 11.9689 4.58383 12.1199 4.56783 12.3209C4.53934 12.7 4.53934 13.0808 4.56783 13.4599C4.58283 13.6599 4.50883 13.8119 4.41483 13.8899L3.57383 14.5819C3.2312 14.864 2.99975 15.2585 2.92065 15.6952C2.84155 16.1319 2.91992 16.5825 3.14183 16.9669L4.06383 18.5639C4.28582 18.9483 4.63699 19.2415 5.05486 19.3913C5.47273 19.5411 5.93019 19.5377 6.34583 19.3819L7.36483 18.9999C7.47983 18.9569 7.64783 18.9689 7.81483 19.0819C8.12683 19.2959 8.45583 19.4869 8.79983 19.6519C8.98183 19.7399 9.07683 19.8799 9.09683 20.0019L9.27483 21.0729C9.42583 21.9769 10.2078 22.6399 11.1248 22.6399H12.9688C13.8848 22.6399 14.6678 21.9769 14.8188 21.0729L14.9968 20.0009C15.0168 19.8809 15.1108 19.7409 15.2938 19.6519C15.6378 19.4869 15.9668 19.2959 16.2788 19.0819C16.4458 18.9679 16.6138 18.9569 16.7288 18.9999L17.7488 19.3819C18.1643 19.5371 18.6214 19.54 19.0389 19.3901C19.4563 19.2401 19.8071 18.947 20.0288 18.5629L20.9518 16.9659C21.1737 16.5815 21.2521 16.1309 21.173 15.6942C21.0939 15.2575 20.8625 14.863 20.5198 14.5809L19.6798 13.8889C19.5848 13.8109 19.5098 13.6599 19.5258 13.4589C19.5543 13.0798 19.5543 12.699 19.5258 12.3199C19.5098 12.1199 19.5848 11.9679 19.6788 11.8899L20.5188 11.1979C21.2268 10.6159 21.4098 9.60789 20.9518 8.81289L20.0298 7.21589C19.8078 6.83148 19.4567 6.53829 19.0388 6.38851C18.6209 6.23872 18.1635 6.24204 17.7478 6.39789L16.7278 6.77989C16.6138 6.82289 16.4458 6.81089 16.2788 6.69689C15.9654 6.48219 15.6361 6.29164 15.2938 6.12689C15.1108 6.03989 15.0168 5.89989 14.9968 5.77889L14.8178 4.70689C14.7449 4.26896 14.5189 3.87111 14.1802 3.58416C13.8414 3.29721 13.4118 3.13978 12.9678 3.13989H11.1248H11.1238ZM12.0458 16.6399C13.0404 16.6399 13.9942 16.2448 14.6975 15.5415C15.4007 14.8383 15.7958 13.8845 15.7958 12.8899C15.7958 11.8953 15.4007 10.9415 14.6975 10.2382C13.9942 9.53498 13.0404 9.13989 12.0458 9.13989C11.0513 9.13989 10.0974 9.53498 9.39418 10.2382C8.69092 10.9415 8.29583 11.8953 8.29583 12.8899C8.29583 13.8845 8.69092 14.8383 9.39418 15.5415C10.0974 16.2448 11.0513 16.6399 12.0458 16.6399Z" fill="#10234E"/>
</svg>
