<svg width="24" height="24" viewBox="0 0 24 24" fill="none" xmlns="http://www.w3.org/2000/svg">
<g clip-path="url(#clip0_61_1175)">
<path fill-rule="evenodd" clip-rule="evenodd" d="M1.5 4.07143C1.5 3.38944 1.77092 2.73539 2.25315 2.25315C2.73539 1.77092 3.38944 1.5 4.07143 1.5H5.24743C5.98457 1.5 6.62743 2.00229 6.80657 2.71714L7.75371 6.50829C7.83047 6.81514 7.81496 7.13782 7.70915 7.43591C7.60333 7.73399 7.41191 7.99422 7.15886 8.184L6.05057 9.01543C5.93486 9.102 5.91 9.22886 5.94257 9.31714C6.42632 10.6327 7.19023 11.8275 8.18138 12.8186C9.17254 13.8098 10.3673 14.5737 11.6829 15.0574C11.7711 15.09 11.8971 15.0651 11.9846 14.9494L12.816 13.8411C13.0058 13.5881 13.266 13.3967 13.5641 13.2909C13.8622 13.185 14.1849 13.1695 14.4917 13.2463L18.2829 14.1934C18.9977 14.3726 19.5 15.0154 19.5 15.7534V16.9286C19.5 17.6106 19.2291 18.2646 18.7468 18.7468C18.2646 19.2291 17.6106 19.5 16.9286 19.5H15C7.54457 19.5 1.5 13.4554 1.5 6V4.07143Z" fill="#0B105C"/>
</g>
<defs>
<clipPath id="clip0_61_1175">
<rect width="24" height="24" fill="white"/>
</clipPath>
</defs>
</svg>
