<svg width="70" height="71" viewBox="0 0 70 71" fill="none" xmlns="http://www.w3.org/2000/svg">
<path d="M0 37.2579C0 18.5798 12.2793 4.03917 29.0317 1.12159C33.7814 0.29176 38.6513 0.45278 43.3358 1.59449C44.104 1.74082 44.8023 2.13692 45.3221 2.72124C45.8418 3.30555 46.1538 4.04527 46.2096 4.8253C46.2717 5.55849 46.0906 6.29179 45.6939 6.91155C45.2973 7.53131 44.7073 8.00299 44.0155 8.25361C43.3323 8.49208 42.5985 8.5463 41.8877 8.41083C36.6405 7.07043 31.1139 7.31268 26.0041 9.10711C15.9557 12.747 9.61228 19.8424 7.56241 30.3293C5.61657 40.2914 8.52467 48.9886 15.8754 55.9894C18.6148 58.6716 21.9005 60.7315 25.5084 62.0284C29.1164 63.3253 32.9616 63.8287 36.7818 63.5044C42.8935 63.1428 48.7154 60.7759 53.3457 56.7704C57.9759 52.7649 61.156 47.3443 62.3934 41.3483C63.4029 36.6697 63.1686 31.8083 61.7138 27.2486C61.3676 26.4006 61.2764 25.47 61.4513 24.571C61.6434 23.8363 62.0698 23.1842 62.6657 22.7135C63.2617 22.2428 63.9948 21.9793 64.754 21.9626C65.5132 21.9459 66.2572 22.177 66.8733 22.621C67.4894 23.065 67.944 23.6977 68.1683 24.4232C69.2448 27.5979 69.8532 30.9123 69.9746 34.2623C70.2512 41.5194 68.2633 48.6827 64.2866 54.7595C60.3099 60.8362 54.5413 65.5254 47.7803 68.1769C41.0194 70.8285 33.601 71.3112 26.5535 69.5581C19.506 67.805 13.1784 63.9029 8.44773 58.3927C3.28231 52.5307 0.298403 45.0654 0 37.2579Z" fill="#04C500"/>
<path d="M33.9836 40.9548C34.1338 40.7184 34.2697 40.5068 34.3962 40.2964C40.5245 30.0896 46.6498 19.8804 52.7718 9.66887C53.0057 9.19933 53.3347 8.78355 53.7378 8.44796C54.141 8.11237 54.6095 7.86431 55.1136 7.7195C55.7777 7.52844 56.4845 7.54614 57.1381 7.7703C57.7918 7.99445 58.3607 8.41421 58.7678 8.97259C59.2099 9.53114 59.467 10.2135 59.5035 10.9249C59.5399 11.6363 59.3538 12.3415 58.9711 12.9423C57.6873 15.1163 56.3775 17.2784 55.0794 19.4442C49.4791 28.7761 43.88 38.1066 38.2821 47.4354C36.8198 49.8719 34.719 50.2726 32.4374 48.5514C27.9783 45.1988 23.5157 41.8493 19.0494 38.503C18.4699 38.1276 18.0186 37.5845 17.7559 36.9459C17.4931 36.3074 17.4313 35.6039 17.5788 34.9293C17.6868 34.3431 17.9441 33.7946 18.3259 33.3368C18.7077 32.879 19.2011 32.5273 19.7584 32.3158C20.3157 32.1043 20.9182 32.04 21.5076 32.1292C22.097 32.2184 22.6535 32.4581 23.1232 32.8251C25.5136 34.5676 27.866 36.3716 30.2363 38.1448C31.4704 39.0752 32.7093 40.002 33.9836 40.9548Z" fill="#04C500"/>
</svg>
