<svg width="70" height="70" viewBox="0 0 70 70" fill="none" xmlns="http://www.w3.org/2000/svg">
<path d="M35.0059 0C54.2941 0 70.0117 15.7383 70.0001 35.035C69.9884 54.3433 54.2474 70.035 34.9476 70C15.6243 69.965 -0.0349473 54.25 5.85766e-05 34.9417C0.0350644 15.6567 15.7177 0 35.0059 0ZM5.8227 35.035C5.86937 51.17 18.9149 64.2017 35.0059 64.1783C51.1319 64.155 64.1774 51.1 64.1774 34.9883C64.1774 18.8417 51.0386 5.74 34.9476 5.82167C18.7749 5.90333 5.77602 18.935 5.8227 35.035Z" fill="#DC0000"/>
<path d="M30.8868 34.9764C29.3349 33.4364 27.853 31.9547 26.3711 30.473C24.7258 28.828 23.0805 27.1947 21.4469 25.538C20.1167 24.1964 20.0467 22.4347 21.2719 21.2214C22.4738 20.0314 24.2124 20.1014 25.5309 21.408C28.5064 24.3597 31.4586 27.3347 34.4341 30.298C34.6091 30.473 34.7958 30.6364 35.0175 30.858C35.2392 30.648 35.4376 30.473 35.6243 30.2864C38.5765 27.3347 41.5286 24.3947 44.4691 21.443C45.3676 20.533 46.4178 20.183 47.643 20.603C49.4866 21.2214 50.1867 23.4614 49.0315 25.0247C48.8332 25.293 48.5881 25.538 48.3431 25.783C45.4959 28.6414 42.6371 31.488 39.79 34.3347C39.5916 34.5214 39.3699 34.6847 39.0782 34.9064C39.3466 35.1864 39.5216 35.3847 39.6966 35.5714C42.6488 38.523 45.601 41.463 48.5414 44.4147C49.8833 45.7564 49.8717 47.693 48.5414 48.8247C47.3396 49.8514 45.671 49.758 44.4808 48.568C41.5286 45.628 38.5765 42.6764 35.636 39.713C35.4493 39.5264 35.3442 39.2464 35.1809 38.978C34.7958 39.3397 34.6208 39.503 34.4458 39.6664C31.4936 42.618 28.5414 45.558 25.601 48.5097C24.7958 49.3147 23.8857 49.7814 22.7188 49.513C20.5018 49.0114 19.6733 46.4564 21.1669 44.753C21.3186 44.578 21.4819 44.4264 21.6453 44.263C24.5508 41.358 27.4446 38.4647 30.3501 35.5597C30.4901 35.3964 30.6535 35.2214 30.8868 34.9764Z" fill="#DC0000"/>
</svg>
